<svg xmlns="http://www.w3.org/2000/svg" width="235.282" height="263.828" viewBox="0 0 235.282 263.828">
  <g id="Group_10" data-name="Group 10" transform="translate(-32 -441)">
    <circle id="Ellipse_4" data-name="Ellipse 4" cx="3" cy="3" r="3" transform="translate(165 513)" fill="#fff"/>
    <circle id="Ellipse_3" data-name="Ellipse 3" cx="6.5" cy="6.5" r="6.5" transform="translate(152 497)" fill="#fff"/>
    <rect id="Rectangle_4" data-name="Rectangle 4" width="127" height="60" rx="22" transform="translate(32 441)" fill="#fff"/>
    <text id="Visit_intromech.com" data-name="Visit intromech.com" transform="translate(42 448)" font-size="12" font-family="OpenSans-Regular, Open Sans"><tspan x="43.413" y="13">Visit </tspan><tspan x="12.464" y="30">intromech.com</tspan></text>
    <g id="peep-52" transform="translate(126.718 523.6)">
      <g id="BODY" transform="translate(0 68.701)">
        <path id="_Skin" data-name="âœ‹ Skin" d="M77.925.028C73.489.247,66.582,2.149,66.237,3.365c-.539,1.9.619,9.017-1.319,12.851-.826,1.634-3.963,1.488-5.179,2.02-4.067,1.781-16.107,5.159-18.59,9.411-.995,1.7-7.107,22.846-10.354,33.632a31.283,31.283,0,0,1-1.229,3.382l-.165-.809q-1.986-9.779-1.986-11.839c0-2.147,1.712-11.2,0-13.508A12.668,12.668,0,0,0,19.8,34.323h-.055a4.694,4.694,0,0,1-3.14-1.132l-1.3-.654Q5.376,27.554,3.7,27.07C1.925,26.555-1.1,27.652.411,29.3A55.1,55.1,0,0,0,8.02,35.12l1.532,1.218-.185.1Q6.4,38,5.874,39.068a2.527,2.527,0,0,0,.517,2.607l-.107.1q-1.335,1.311-1.335,1.758v1.458q-1.328,1.946-.664,3.246a6,6,0,0,0,2.106,2.253,9.232,9.232,0,0,0,2.53,3.98A12.729,12.729,0,0,0,14,56.444l2.176,5.2,1.763,7.311.888,8.158-.258.187c-1.2.871-1.961,1.517-1.961,2.184,0,1.039,4.823,25.485,12.328,26.579,1.623.237,10.04-.924,12.8-3.173l-.041.243q-.975,5.893.413,6.121,17.059,2.8,96.9,1.729.475-42.391-4.3-56.463c-8.134-23.994-17.1-32.189-20.24-32.891-2.748-.615-12.279-4.409-14.943-5.417-1.739-.657-2.112-2.629-4.093-2.629h-.16c-1.917.019-3.616.362-4.571-.624-2.506-2.588-1.805-6.169-2.845-9.6C87.283,1.476,83.369-.241,77.925.028Z" transform="translate(0.223 0)" fill="#d08b5b"/>
        <path id="_Jacket" data-name="ðŸ§¥ Jacket" d="M78.828,0h-.16c-.474,0-.934.029-1.373.049L78.22,3.2l.02.331q.9,16.313-15.97,15.618T45.485,8.476l0-.2V4.132l-.177.034a12.216,12.216,0,0,0-2.175.482C39.069,6.43,27.029,9.807,24.547,14.06c-.995,1.7-7.107,22.846-10.354,33.632q-.178.591-.371,1.154v2.132l.035.129Q15.564,57.5,9.311,61.553A24.955,24.955,0,0,1,.205,65.287,1.127,1.127,0,0,0,0,65.9c0,1.039,4.823,25.485,12.328,26.579,1.623.237,10.04-.924,12.8-3.173l-.041.243-.038.233q-.91,5.665.451,5.888,17.059,2.8,96.9,1.729.475-42.391-4.3-56.463C109.97,16.942,101,8.747,97.864,8.045,95.116,7.43,85.586,3.636,82.922,2.629,81.183,1.971,80.81,0,78.828,0Z" transform="translate(16.827 13.587)" fill="#ba98de"/>
        <path id="_Ink" data-name="ðŸ– Ink" d="M57.153,0a9.079,9.079,0,0,0-1.815.156,4.279,4.279,0,0,0-1.575.632,1.265,1.265,0,0,0-.584.4,3.362,3.362,0,0,0-.495.786A11.684,11.684,0,0,0,51.921,4.4c-.422,1.9-.694,4.268-.913,6.172a31.356,31.356,0,0,1-.513,3.539l-.247,1.66c-.894,6.041-1.931,13.193-2.839,20.44-.945,7.539-1.636,14.268-2.113,20.57-.267,3.531-.471,7-.606,10.309-.143,3.515-.215,6.985-.212,10.312,0,3.5.089,6.969.254,10.3.173,3.488.439,6.949.791,10.287a4.773,4.773,0,0,1-1.362-.244,4.048,4.048,0,0,1-1.095-.573,5.14,5.14,0,0,1-1.51-1.882,10.248,10.248,0,0,1-.813-2.446,21.517,21.517,0,0,1-.365-2.506,24.918,24.918,0,0,0-1.038-4.763c-.483-1.552-1.078-3.1-1.654-4.6h0c-.653-1.7-1.329-3.458-1.841-5.223a25.772,25.772,0,0,1-.636-2.679,18.884,18.884,0,0,1-.294-2.761A11.973,11.973,0,0,1,35.9,65.38c.287-.609.6-1.22.933-1.867a25.352,25.352,0,0,0,2.228-5.276,8.468,8.468,0,0,0,.261-2.725,6.735,6.735,0,0,0-.249-1.366,6.9,6.9,0,0,0-.566-1.361,15.416,15.416,0,0,1-1.543-2.125,4.82,4.82,0,0,1-.633-1.738,12.275,12.275,0,0,1,.641-4.419l.02-.08c.615-2.938,1.328-5.914,2.18-9.1.759-2.835,1.611-5.771,2.6-8.976C43.626,20.4,45.694,14.4,47.694,8.608c.471-1.365.958-2.777,1.437-4.173-.111-.58-.292-.874-.538-.874-.178,0-.393.154-.641.457a7.989,7.989,0,0,0-.782,1.242,40.914,40.914,0,0,0-1.794,4.05c-1.234,3.134-2.434,6.722-3.151,8.865l0,.005c-.267.8-.461,1.376-.54,1.582a2.128,2.128,0,0,0-.955-.246,1.617,1.617,0,0,0-.7.158,1.745,1.745,0,0,0-.549.417,2.086,2.086,0,0,0-.516,1.26,1.646,1.646,0,0,0,.359,1.148,1.606,1.606,0,0,0,.529.41,2.331,2.331,0,0,0,.791.215C38.492,30.314,36.8,36.7,35.462,42.652l-.039.185c-.088.411-.186.822-.289,1.257a19.907,19.907,0,0,0-.685,4.164,6.766,6.766,0,0,0,.243,2.012,5.275,5.275,0,0,0,.963,1.854c3.217,3.254,1.508,6.724-.3,10.4-1.335,2.71-2.715,5.512-2.218,8.416a1.478,1.478,0,0,0-.887-.292,1.661,1.661,0,0,0-.646.134,1.711,1.711,0,0,0-.546.371,1.5,1.5,0,0,0-.439,1.085,1.437,1.437,0,0,0,.414,1.068,1.731,1.731,0,0,0,1.222.514,1.464,1.464,0,0,0,1.137-.52,25.718,25.718,0,0,0,1.087,4.1c.462,1.336,1.007,2.672,1.534,3.963.516,1.264,1.049,2.571,1.5,3.877a26.251,26.251,0,0,1,1.085,4l.045.26c.074.431.137.874.2,1.3h0a13.259,13.259,0,0,0,1.193,4.5A26.458,26.458,0,0,0,35.9,93.157a2.127,2.127,0,0,0,.663-.859,1.076,1.076,0,0,0,.012-.759A1.6,1.6,0,0,0,35.1,90.6a1.155,1.155,0,0,0-.885.37,1.262,1.262,0,0,0-.274.555,2.417,2.417,0,0,0-.026.845c-13.8-3.993-17.1-9.413-22.384-22.76a1.136,1.136,0,0,0,.8.333,1.416,1.416,0,0,0,1.165-.665,1.142,1.142,0,0,0,.069-1.138,1.131,1.131,0,0,0-.466-.586,1.273,1.273,0,0,0-.679-.187,1.426,1.426,0,0,0-.907.322,1.143,1.143,0,0,0-.416.9l-.235-.561c-2.823-6.753-5.91-14.784-7.406-23.154A2.438,2.438,0,0,0,3.8,44.9a1.443,1.443,0,0,0,1.072-.41,1.359,1.359,0,0,0,.308-.518,1.715,1.715,0,0,0,.084-.61,1.8,1.8,0,0,0-.386-1.057,1.271,1.271,0,0,0-1.008-.481,1.943,1.943,0,0,0-.86.225A136.349,136.349,0,0,1,2.1,20.528a1.774,1.774,0,0,0,.81.231.914.914,0,0,0,.741-.348,1.247,1.247,0,0,0,.254-.765,1.185,1.185,0,0,0-.312-.847.917.917,0,0,0-.669-.266,1.828,1.828,0,0,0-.8.218c.05-3.306.113-6.668.175-9.919.048-2.529.1-5.144.14-7.73a.9.9,0,0,0-.245-.66A.989.989,0,0,0,1.483.168,1.039,1.039,0,0,0,.812.4a.917.917,0,0,0-.32.7C.439,3.221.375,5.371.313,7.45.111,14.267-.1,21.315.051,28.242.028,30.173.077,32.144.2,34.1c.117,1.911.3,3.862.557,5.8.247,1.89.563,3.819.939,5.734.367,1.866.8,3.772,1.292,5.663A111.324,111.324,0,0,0,6.51,62.384c1.316,3.51,2.859,7.122,4.587,10.736a40.02,40.02,0,0,0,4.7,9.364,24.628,24.628,0,0,0,2.758,3.285,23.186,23.186,0,0,0,3.093,2.586,33.892,33.892,0,0,0,7.377,3.778c2.755,1.066,5.778,2,9.278,3.083h0q1,.309,2.061.639a8.04,8.04,0,0,0,2.216,2.177,5.385,5.385,0,0,0,2.9.971,3.543,3.543,0,0,0,1.69-.419,26.25,26.25,0,0,1,2.116,4.725c.3.8.6,1.63.942,2.414a.746.746,0,0,0,.711.392,1.583,1.583,0,0,0,.7-.177,1.419,1.419,0,0,0,.557-1.468,6.956,6.956,0,0,0-.607-1.735,9,9,0,0,1-.391-.958,14.05,14.05,0,0,0-.863-1.748,12.326,12.326,0,0,0-1.125-1.619A8.861,8.861,0,0,0,46.2,95.99c.032-.386.066-.791.093-1.117.163-1.947.332-3.959.4-5.946,2.919-3.622,7.766-5,12.48-6.093a13.7,13.7,0,0,1,3.652-.491A14.458,14.458,0,0,1,76.467,91.8a5.224,5.224,0,0,0-1.681,1.556A7.24,7.24,0,0,0,73.774,95.5a8.84,8.84,0,0,0-.356,2.376,7.937,7.937,0,0,0,.286,2.268.306.306,0,0,0,.278.193.219.219,0,0,0,.2-.129,9.678,9.678,0,0,0,.673-2.3,8.778,8.778,0,0,1,.805-2.566,50.948,50.948,0,0,0,6.36-1.022,45.515,45.515,0,0,0,6.538-1.986,32.542,32.542,0,0,0,6.018-3.062,20.972,20.972,0,0,0,4.8-4.252c1.929-2.689,2.892-6.029,3.823-9.259h0c.192-.665.39-1.353.591-2.013,1.286-4.078,2.455-8.268,3.585-12.319v0c1.027-3.682,2.089-7.49,3.236-11.2L110.9,51.7c.373,1.948.755,4.025.969,6.129a27.067,27.067,0,0,1-.009,6.181l-.009.2c-.028.528-.078,1.134-.131,1.775-.278,3.367-.66,7.977,1.479,9.839a14.07,14.07,0,0,0,3.172,1.83,9.556,9.556,0,0,0,3.6.771,6.541,6.541,0,0,0,1.768-.235,56.273,56.273,0,0,1,5.956,3.255c1.433.86,2.915,1.749,4.419,2.517.809.414,1.56.76,2.3,1.06a21.141,21.141,0,0,0,2.4.821,5.393,5.393,0,0,0,1.07.108,4.2,4.2,0,0,0,1.3-.19,2.157,2.157,0,0,0,1-.635,1.922,1.922,0,0,0,.351-1.637,6.4,6.4,0,0,0-.993-2.059,8.838,8.838,0,0,0-1.561-1.642,25.823,25.823,0,0,0-3.978-2.537c-.841-.467-1.635-.909-2.366-1.386a5.261,5.261,0,0,0,1.949-1.055,5.044,5.044,0,0,0,.8-.835,3.615,3.615,0,0,0,.526-.966,2.4,2.4,0,0,0-.354-2.313.684.684,0,0,0-.038-.09,2.064,2.064,0,0,0,.766-.572,2.177,2.177,0,0,0,.409-.8,3.089,3.089,0,0,0,.109-.919,4.192,4.192,0,0,0-.134-.942c-.013-.135-.036-.165-.044-.177s0-.006,0-.014a.816.816,0,0,0,.113-.149,2.218,2.218,0,0,0,.5-.726,3.323,3.323,0,0,0,.247-.921,4.322,4.322,0,0,0-.219-1.986,2.978,2.978,0,0,0-.728-1.159,1.84,1.84,0,0,0-1.173-.518,4.469,4.469,0,0,0-.639-2.582,5.9,5.9,0,0,0-.819-1.093,6.076,6.076,0,0,0-1.029-.872,9.429,9.429,0,0,0-2.24-.978,13.975,13.975,0,0,1-1.6-.613,4.282,4.282,0,0,1-1.349-.969,28.721,28.721,0,0,1-1.951-4.238,36.268,36.268,0,0,1-1.316-4.5,55.709,55.709,0,0,1-1.209-9.325,5.1,5.1,0,0,0,1.726-1.089,3.373,3.373,0,0,0,.985-1.63,2.208,2.208,0,0,0-.028-1.12,2.74,2.74,0,0,0-.677-1.121h0l-.108-.011a40.887,40.887,0,0,1-1.733-7.156c-.1-.565-.206-1.148-.314-1.718a29.066,29.066,0,0,0-.9-3.735A33.08,33.08,0,0,0,119.8,15.4c-.5-1.129-1.085-2.279-1.733-3.418-.611-1.073-1.3-2.169-2.041-3.258a7.681,7.681,0,0,0-3.459-3.068,9.956,9.956,0,0,0-2.236-.714,12.467,12.467,0,0,0-2.41-.228,15.213,15.213,0,0,0-4.747.784,13.186,13.186,0,0,0-4.027,2.126c0-.221.016-.444.027-.659a5.775,5.775,0,0,0-.157-2.151,1.047,1.047,0,0,0-.331-.429.7.7,0,0,0-.407-.134.832.832,0,0,0-.59.268,1.2,1.2,0,0,0-.321.708,1.766,1.766,0,0,0-.855-.256,1.085,1.085,0,0,0-.872.426,1.629,1.629,0,0,0-.331.938,1.4,1.4,0,0,0,.349,1.024,1.174,1.174,0,0,0,.872.341,2.128,2.128,0,0,0,.541-.076c-.218,3.422-.335,6.8-.42,9.662a2.422,2.422,0,0,0-.742-.127,1.48,1.48,0,0,0-1.163.514,1.812,1.812,0,0,0-.414,1.13,1.7,1.7,0,0,0,.441,1.23,1.423,1.423,0,0,0,1.049.415,2.507,2.507,0,0,0,.768-.133l0,1.384c-.011,5.063.008,10.5.214,15.925.223,5.869.642,11.058,1.281,15.862.064.392.153.784.238,1.163s.174.776.239,1.169a.059.059,0,0,0,.062.051.075.075,0,0,0,.079-.07c.081-5.524,0-11.145-.088-16.581-.069-4.536-.141-9.226-.115-13.839.029-5.174.18-9.7.462-13.834a2.5,2.5,0,0,0,1.191-1.061,4.654,4.654,0,0,1,.6-.713,9.09,9.09,0,0,1,5.078-2.1,15.621,15.621,0,0,1,2.175-.167,6.8,6.8,0,0,1,4.364,1.322,11.778,11.778,0,0,1,3.085,4.15,1.154,1.154,0,0,0-.651-.2,1.281,1.281,0,0,0-.66.189,1.373,1.373,0,0,0-.481.486,1.161,1.161,0,0,0-.159.547,1.119,1.119,0,0,0,.156.6l.02.033a1.115,1.115,0,0,0,1,.587,1.35,1.35,0,0,0,.56-.124,1.313,1.313,0,0,0,.457-.346,1.126,1.126,0,0,0,.224-.423,1.169,1.169,0,0,0,.02-.523,28.272,28.272,0,0,1,2.72,5.817,51.154,51.154,0,0,1,1.664,6.214l.12.5c.2.837.454,1.823.787,2.788a12.368,12.368,0,0,0,1.24,2.661,20.571,20.571,0,0,0-8.74,4.7,14.555,14.555,0,0,0-4.744,8.545c-1.4-4.391-3.251-8.754-5.043-12.974v0c-.264-.621-.536-1.263-.8-1.893-.232-.617-.417-1.261-.6-1.883a14.186,14.186,0,0,0-1.226-3.235.452.452,0,0,0-.4-.23.493.493,0,0,0-.475.344c-.622,2.78.641,5.449,1.863,8.029.406.858.789,1.667,1.108,2.484.281.5.708,1.483,1.2,2.623.688,1.584,1.543,3.555,2.392,5.114a12.262,12.262,0,0,0,1.253,1.945c.429.515.811.778,1.136.782-.814,3.57-1.811,7.465-3.047,11.907-1.1,3.957-2.285,7.965-3.429,11.841-.38,1.288-.774,2.621-1.158,3.929a30.267,30.267,0,0,1-2.508,7.594,16.887,16.887,0,0,1-1.728,2.728,15.3,15.3,0,0,1-2.095,2.2c-3.082,2.656-7.251,4.226-12.8,6.154a32.756,32.756,0,0,1,1.533-5.188c.647-1.724,1.41-3.473,2.148-5.165h0c.729-1.671,1.482-3.4,2.126-5.1a33.81,33.81,0,0,0,1.545-5.147,18.7,18.7,0,0,0,.377-5.222,15.622,15.622,0,0,0-.433-2.649,16.047,16.047,0,0,0-.944-2.679l-.12-.281a5.632,5.632,0,0,1-.57-3.709,11.179,11.179,0,0,1,1.252-2.664c.163-.279.331-.568.487-.856a14.307,14.307,0,0,0,.931-2.134,15.407,15.407,0,0,0,.571-2.2,19.945,19.945,0,0,0,.273-4.52,55.264,55.264,0,0,0-1.455-9.144c-.2-.906-.4-1.842-.579-2.744-.355-1.652-.715-3.332-1.063-4.957l-.013-.059c-1.311-6.117-2.667-12.442-4.049-18.654-.1-.46-.193-.931-.282-1.387a25.159,25.159,0,0,0-.809-3.327.766.766,0,0,0-.325-.405.926.926,0,0,0-.483-.135.758.758,0,0,0-.565.227.656.656,0,0,0-.154.519,28.691,28.691,0,0,0,.7,3.773c.113.487.229.991.334,1.489.912,4.724,1.975,9.5,3,14.125h0c1.434,6.445,2.918,13.11,4.012,19.726a14.733,14.733,0,0,1-.182,5.772,17.174,17.174,0,0,1-1.59,3.839,10.424,10.424,0,0,0-1.6,5.526,22.262,22.262,0,0,0,1.015,3.015,26.253,26.253,0,0,1,.891,2.533,8.872,8.872,0,0,1,.354,2.673,19.059,19.059,0,0,1-.2,3.634,25.585,25.585,0,0,1-.789,3.5A66.565,66.565,0,0,1,85.4,81.274c-.767,1.83-1.559,3.722-2.19,5.618-.34,1.021-.607,1.961-.817,2.874a22.221,22.221,0,0,0-.482,2.952l-1.439.513c-.868.311-1.532.552-2.154.783a273.1,273.1,0,0,0,2.49-39.862c-.024-6.234-.2-12.781-.541-20.016-.278-5.913-.662-12.251-1.209-19.944a28.127,28.127,0,0,1-.226-3.751c-.059-1.891-.132-4.245-.311-6.074a14.293,14.293,0,0,0-.362-2.274,2.523,2.523,0,0,0-.264-.663.42.42,0,0,0-.332-.239h0a.323.323,0,0,0-.137.033,1.424,1.424,0,0,0-.266-.651A.756.756,0,0,0,76.549.28h0C73.376.251,70.161.208,67.052.167h-.036C65.217.142,63.357.117,61.528.1c-.267.025-.559.037-.89.037-.542,0-1.1-.031-1.691-.065h-.028C58.341.034,57.744,0,57.153,0Zm62.608,77.194h0a6.455,6.455,0,0,1-2.459-.569l-.354-.133a12.946,12.946,0,0,1-1.81-.814,4.351,4.351,0,0,1-1.464-1.253,4.138,4.138,0,0,1-.375-2.17c0-.273,0-.531-.021-.75a33.871,33.871,0,0,1,.18-8.083,37.019,37.019,0,0,0-.626-9.492,39.826,39.826,0,0,0-2.917-9.062,35.812,35.812,0,0,1,2.152-3.119,26.676,26.676,0,0,1,2.524-2.832,20.356,20.356,0,0,1,2.932-2.365,16.7,16.7,0,0,1,3.378-1.718,85.977,85.977,0,0,0,2.165,14.36l.04.207c.058.3.112.615.165.916a22.3,22.3,0,0,0,.592,2.713,8.622,8.622,0,0,0,.5,1.282,6.643,6.643,0,0,0,.75,1.2,8.29,8.29,0,0,0,3.861,2.171c1.9.632,3.692,1.228,4.795,4.152a.386.386,0,0,0-.192.449.392.392,0,0,0,.373.318.442.442,0,0,0,.117-.017,1.24,1.24,0,0,1,.216-.02c.528,0,.944.382,1.142,1.049a2.964,2.964,0,0,1,.053,1.406,1.633,1.633,0,0,1-.624,1.063,1.154,1.154,0,0,0-.375.348.983.983,0,0,0-.151.407,2.929,2.929,0,0,0,.074.918,2.029,2.029,0,0,1-.04,1.319,1.347,1.347,0,0,1-.542.407,1.344,1.344,0,0,0-.61.492,1.9,1.9,0,0,0,.336,1.708,4.243,4.243,0,0,1,.344.726,1.184,1.184,0,0,1,.017.749,1.759,1.759,0,0,1-.589.777,6.711,6.711,0,0,1-1.468.868,3.564,3.564,0,0,1-1.215.177c-.253,0-.506-.014-.75-.028h-.014c-.239-.013-.485-.027-.72-.027h-.023a5.788,5.788,0,0,1-2.021-.711,7.218,7.218,0,0,0-1.478-.606,4.321,4.321,0,0,0,.256-1,3.968,3.968,0,0,0,.01-.954,3.617,3.617,0,0,0-.6-1.639,2.781,2.781,0,0,0-2.293-1.276,2.865,2.865,0,0,0-1.115.234,4.072,4.072,0,0,0-1.146.752,7.857,7.857,0,0,1-1.375-1.773,2.169,2.169,0,0,1-.4-1.621.657.657,0,0,1,.689-.363,4.517,4.517,0,0,1,1.588.416c.582.389,1.148.819,1.7,1.235.617.469,1.255.954,1.916,1.379a10.234,10.234,0,0,0,2.118,1.068l.046.015c.14.046.357.133.631.244a10.043,10.043,0,0,0,2.927.864.721.721,0,0,0,.556-.179.525.525,0,0,0,.1-.426,4.305,4.305,0,0,0-1.281-.824,14.241,14.241,0,0,0-1.487-.524,8.775,8.775,0,0,1-2.331-.979,10.615,10.615,0,0,1-2.193-1.51,12.542,12.542,0,0,0-1.762-1.282,4.711,4.711,0,0,0-.983-.421,3.89,3.89,0,0,0-1.109-.159h-.053a2.016,2.016,0,0,1,.228-1.632,1.16,1.16,0,0,1,.932-.36,5.249,5.249,0,0,1,2.044.569,14.38,14.38,0,0,1,1.815,1.006l.422.229c2.179,1.178,4.342,2.236,6.833,2.251h0a.5.5,0,0,0,.513-.525.569.569,0,0,0-.128-.372.5.5,0,0,0-.389-.174c-2.635-.016-4.893-1.361-7.077-2.661-.517-.308-1.052-.626-1.579-.919a1.16,1.16,0,0,1,.215-.948,1.558,1.558,0,0,1,1.209-.394,9.928,9.928,0,0,1,2.394.426l.162.043a7.352,7.352,0,0,1,1.446.452,6.349,6.349,0,0,0,2.057.549,1.355,1.355,0,0,0,.763-.2.608.608,0,0,0,0-.529c-.184-.34-.777-.466-1.3-.577a3.5,3.5,0,0,1-.772-.219c1.092-.525,1.421-.978,1.365-1.226-.029-.129-.163-.207-.357-.207a1.261,1.261,0,0,0-.745.3,2.239,2.239,0,0,0-.686,1l-.23-.079a13.508,13.508,0,0,0-4.057-.842,2.3,2.3,0,0,0-1.823.611,1.832,1.832,0,0,0-.283,1.54,4.444,4.444,0,0,0-1.751-.4,2.957,2.957,0,0,0-.64.068,4.8,4.8,0,0,0-1.369-1.369,2.335,2.335,0,0,0-1.152-.412c-.221,0-.364.076-.392.208-.066.316.514.97,2.364,1.775a1.572,1.572,0,0,0-.673.638,2.25,2.25,0,0,0-.3.938,1.9,1.9,0,0,0,.1.822,1.317,1.317,0,0,0,.483.636c-.966.059-1.551.377-1.74.946a3.117,3.117,0,0,0,.6,2.306,9.121,9.121,0,0,0,.841,1.152,7.807,7.807,0,0,0,.867.879c-.153.155-.286.3-.406.436a8.039,8.039,0,0,0-1.33-.5,8.148,8.148,0,0,0-1.411-.254c-.024,0-.047,0-.07,0a.667.667,0,0,0-.526.249.971.971,0,0,0-.212.552.721.721,0,0,0,.589.829,7.486,7.486,0,0,1,2.752.894.968.968,0,0,0,.383.085c.5,0,.874-.467,1.266-.961.4-.51.822-1.038,1.421-1.078a1.041,1.041,0,0,1,.2-.02,1.305,1.305,0,0,1,1.142,1.134,12.807,12.807,0,0,1-.406,2.038,7.263,7.263,0,0,1-.784,1.813,3.5,3.5,0,0,1-3.1,1.8Zm18.368,7.423a2.861,2.861,0,0,1-.558-.06,17.42,17.42,0,0,1-5.811-2.355c-.517-.285-1.006-.554-1.5-.807-1.542-.815-3.142-1.554-4.689-2.27h0c-.954-.441-1.939-.9-2.905-1.367a5.746,5.746,0,0,0,1.381-1.211,8.658,8.658,0,0,0,1.042-1.59,6.564,6.564,0,0,0,1.985,1.013,8.287,8.287,0,0,0,2.206.378,10.586,10.586,0,0,0,1.949,1.438c.7.418,1.466.8,2.2,1.163a26.353,26.353,0,0,1,2.878,1.586,9.941,9.941,0,0,1,1.275,1,7.381,7.381,0,0,1,1.074,1.24,2.308,2.308,0,0,1,.451.788.845.845,0,0,1-.018.609.979.979,0,0,1-.96.449ZM21.282,2.838a.848.848,0,0,0-.762.427A1.011,1.011,0,0,0,20.8,4.431a.269.269,0,0,1-.013.029l-.009.019c-.022.063-.049.125-.075.184a2.087,2.087,0,0,0-.087.221A3.641,3.641,0,0,0,20.514,6c0,.083,0,.168,0,.251,0,.662.019,1.334.037,1.985h0q.006.213.012.426c.051,1.852.106,3.528.169,5.124.249,6.3.74,12.483,1.141,17.169l.166,1.928c.224,2.606.452,5.154.772,7.681.015.118.03.243.047.366a1.69,1.69,0,0,0-.463.341,6.177,6.177,0,0,0-1.046,1.871l-.07.167-.067.158a11.173,11.173,0,0,0-.76,2.285l-.014.073-.007.033c-.07.341-.186.911.161,1.07a.368.368,0,0,0,.149.038c.1,0,.174-.068.218-.2a.089.089,0,0,0-.012-.073,3.229,3.229,0,0,1,.284-.354,3.434,3.434,0,0,0,.242-.295l.5-.716.247-.36c.277-.408.593-.834.994-1.339a43.726,43.726,0,0,0,1.125,5.682.166.166,0,0,0,.164.127.183.183,0,0,0,.186-.174,65.485,65.485,0,0,0-.16-7.645c-.059-.872-.126-1.756-.192-2.612V39c-.051-.669-.1-1.362-.152-2.04-.289-4.058-.526-8.179-.7-12.25a1.6,1.6,0,0,0,.193.067,1.723,1.723,0,0,0,.923,0,1.72,1.72,0,0,0,.721-.4l.044-.042a1.955,1.955,0,0,0,.51-1.171V23.1a1.707,1.707,0,0,0-.237-.876,1.76,1.76,0,0,0-.621-.623,1.74,1.74,0,0,0-.876-.236c-.032,0-.066-.006-.1-.008h-.055a1.275,1.275,0,0,0-.6.146l-.03.009c-.078-2.12-.14-4.214-.184-6.223-.018-.776-.038-1.561-.058-2.32-.026-1.017-.054-2.069-.075-3.1l-.017-.9-.033-2q0-.064,0-.127A6.7,6.7,0,0,0,22.7,4.577l-.033-.089c-.036-.093-.07-.189-.105-.292a2.057,2.057,0,0,0-.79-1.234,1.047,1.047,0,0,0-.492-.124Zm24.28,2.229a1.145,1.145,0,0,0-.7.244l-.031.023-.03.024a.792.792,0,0,0-.262.6.826.826,0,0,0,.236.644l.026.021c.018.015.037.03.061.047a1.144,1.144,0,0,0,.7.243.9.9,0,0,0,.942-.924.893.893,0,0,0-.287-.689A.974.974,0,0,0,45.562,5.067ZM17.7,5.3h-.054a1.551,1.551,0,0,0-.793.215l-.2.155,0,0-.014.011-.1.076a1.576,1.576,0,0,0-.4.693l-.012.094v0c-.014.1-.028.214-.044.32a1.206,1.206,0,0,0,.136.6,1.19,1.19,0,0,0,.324.505,1.159,1.159,0,0,0,.506.325,1.173,1.173,0,0,0,.552.137h.054a1.549,1.549,0,0,0,.792-.215l.231-.178.087-.067a1.565,1.565,0,0,0,.4-.693l.056-.417a1.193,1.193,0,0,0-.136-.605,1.193,1.193,0,0,0-.324-.506,1.172,1.172,0,0,0-.505-.324A1.167,1.167,0,0,0,17.7,5.3ZM88.657,8.051a.757.757,0,0,0-.192.025,1.074,1.074,0,0,0-.533.171l-.252.2-.039.03a3.852,3.852,0,0,0-.239.308c-.052.123-.1.24-.148.349a1.562,1.562,0,0,0,0,.8v.006a.708.708,0,0,0,.037.136l.033.089a1.571,1.571,0,0,0,.29.512l.059.079a1.035,1.035,0,0,0,.095.113,1.686,1.686,0,0,0,.226.183c.042.03.082.059.119.088a1.513,1.513,0,0,0,.757.2l.4-.053a1.5,1.5,0,0,0,.9-.69,1.12,1.12,0,0,0,.178-.557,1.143,1.143,0,0,0-.027-.6,1.129,1.129,0,0,0-.268-.51,1.042,1.042,0,0,0-.16-.195,1.715,1.715,0,0,0-.509-.486,1.075,1.075,0,0,0-.535-.171A.743.743,0,0,0,88.657,8.051Zm-51.385,1.8h-.046a1.221,1.221,0,0,0-.621.168l-.25.192a1.251,1.251,0,0,0-.317.544c-.012.1-.025.192-.038.286v0L36,11.08a.925.925,0,0,0,.107.474.928.928,0,0,0,.254.4,1.409,1.409,0,0,0,.82.362h.051a1.237,1.237,0,0,0,.62-.168l.25-.194a1.23,1.23,0,0,0,.317-.542c.012-.1.026-.2.04-.3h0l0-.029a.936.936,0,0,0-.107-.475.914.914,0,0,0-.254-.4.941.941,0,0,0-.4-.254A.922.922,0,0,0,37.273,9.849Zm-9.959.112a1.282,1.282,0,0,0-.434.072,2.194,2.194,0,0,0-.408.181,1.828,1.828,0,0,0-.527.538v0a1.373,1.373,0,0,0,0,1.385,1.384,1.384,0,0,0,1.183.678h.016a1.543,1.543,0,0,0,.886-.271,1.514,1.514,0,0,0,.568-.664l.008-.018c.032-.074.061-.145.088-.218a1.21,1.21,0,0,0-.026-1.04,1.377,1.377,0,0,0-.891-.574A1.609,1.609,0,0,0,27.314,9.961Zm-16.467,0a2.445,2.445,0,0,0-.415.039,1.5,1.5,0,0,0-.675.369.919.919,0,0,0-.266.818.932.932,0,0,0,.362.629v0l-.073-.056.073.068.009.009a.493.493,0,0,1,.023.046v0a1.273,1.273,0,0,0,.455.455,1.277,1.277,0,0,0,1.867-1.435,1.274,1.274,0,0,0-.888-.888A1.945,1.945,0,0,0,10.847,9.965Zm94.224,4.71a1.784,1.784,0,0,0-.669.172,1.479,1.479,0,0,0-.446.445.918.918,0,0,0-.148.463.64.64,0,0,0,0,.329.929.929,0,0,0,.148.463l.195.252.02.017a1.243,1.243,0,0,0,.551.321,1.257,1.257,0,0,0,.664,0,.93.93,0,0,0,.425-.224.94.94,0,0,0,.3-.308l.024-.043a1.3,1.3,0,0,0,.126-.963,1.167,1.167,0,0,0-.319-.553,1.192,1.192,0,0,0-.553-.32l-.014,0-.014,0A.955.955,0,0,0,105.072,14.674ZM89.392,22.1a1.427,1.427,0,0,0-1.122.484,1.7,1.7,0,0,0,0,2.13,1.542,1.542,0,0,0,2.244,0,1.7,1.7,0,0,0,0-2.13A1.427,1.427,0,0,0,89.392,22.1Zm-72.93.365a1.216,1.216,0,0,0-.365.057l-.14.059-.236.1-.32.247-.247.32-.079.188-.08.189-.056.419a1.187,1.187,0,0,0,.135.608,1.559,1.559,0,0,0,.486.631.791.791,0,0,0,.347.2.78.78,0,0,0,.4.107,1.2,1.2,0,0,0,.264.03,1.217,1.217,0,0,0,.365-.057l.1-.044.272-.114.32-.247a.576.576,0,0,0,.1-.118c.013-.019.027-.038.043-.059l.069-.09a1.045,1.045,0,0,0,.169-.336l.041-.107a1.546,1.546,0,0,0,0-.814,1.448,1.448,0,0,0-.157-.368,1.517,1.517,0,0,0-.222-.294l-.043-.044a1.2,1.2,0,0,0-.507-.326.781.781,0,0,0-.4-.107A1.207,1.207,0,0,0,16.462,22.463Zm98.569,2.869a1.151,1.151,0,0,0-.591.161,1.314,1.314,0,0,0-.438.43.628.628,0,0,0-.051.112c-.007.018-.014.037-.022.054l-.022.051a1,1,0,0,0-.047.117,1.244,1.244,0,0,0,0,.649.921.921,0,0,0,.218.414.932.932,0,0,0,.343.314,1.217,1.217,0,0,0,.565.166h.091a.9.9,0,0,0,.428-.106,1.038,1.038,0,0,0,.146-.063,1.222,1.222,0,0,0,.439-.437.923.923,0,0,0,.145-.454.91.91,0,0,0-.01-.442l-.013-.044a1.192,1.192,0,0,0-.15-.333.182.182,0,0,0-.023-.035,1.193,1.193,0,0,0-.405-.393,1.213,1.213,0,0,0-.6-.163Zm-84.067,1.4a.611.611,0,0,0-.161.022,1.176,1.176,0,0,0-.574.239.9.9,0,0,0-.312.34l-.123.291-.042.323.042.321.067.158a1.284,1.284,0,0,0,.9.9,1.3,1.3,0,0,0,.342.047,1.271,1.271,0,0,0,.288-.034l.052-.013a.98.98,0,0,0,.437-.229.993.993,0,0,0,.33-.361,1.282,1.282,0,0,0-.461-1.755l-.167-.081a.9.9,0,0,0-.451-.143A.625.625,0,0,0,30.964,26.727Zm75.693,1.894a1.288,1.288,0,0,0-.387.061l-.282.119-.008,0-.106.045-.246.189,0,0-.088.068-.056.073-.2.263a1.228,1.228,0,0,0-.2.619.829.829,0,0,0,0,.442.82.82,0,0,0,.113.419,1.247,1.247,0,0,0,.344.536l.069.053c.087.068.178.138.268.206l.4.167a1.261,1.261,0,0,0,.664.03,1.654,1.654,0,0,0,.786-.328,1.266,1.266,0,0,0,.428-.466l.167-.4a1.689,1.689,0,0,0,0-.9,1.236,1.236,0,0,0-.292-.557.828.828,0,0,0-.294-.294,1.239,1.239,0,0,0-.488-.274l-.051-.014-.018,0-.009,0a.009.009,0,0,0-.006,0,1.1,1.1,0,0,0-.225-.032A1.288,1.288,0,0,0,106.657,28.621ZM9.438,34.551a1.492,1.492,0,0,0-.334.038,1.094,1.094,0,0,0-.338.146,1.193,1.193,0,0,0-.4.406,1.075,1.075,0,0,0-.151.549.914.914,0,0,0,.009.128.987.987,0,0,0-.026.271l.046.344,0,.009a1.288,1.288,0,0,0,.847.882l.05.015h.008a1.292,1.292,0,0,0,.69,0l.309-.129a.97.97,0,0,0,.364-.335.963.963,0,0,0,.233-.442,1.462,1.462,0,0,0,.008-.835,1.6,1.6,0,0,0-.4-.682,1.258,1.258,0,0,0-.918-.366ZM93.6,37.811a1.224,1.224,0,0,0-.828.343,1.182,1.182,0,0,0-.343.829.89.89,0,0,0,.1.451.872.872,0,0,0,.209.344l.033.032a1.172,1.172,0,0,0,1.657,0,1.174,1.174,0,0,0,.343-.827,1.3,1.3,0,0,0-.343-.829A1.219,1.219,0,0,0,93.6,37.811Zm9.648,6.543a1.454,1.454,0,0,0-.735.2,1.475,1.475,0,0,0-.522.522,1.014,1.014,0,0,0-.17.424,1.484,1.484,0,0,0,.342,1.4l.039.04a1.684,1.684,0,0,0,1,.435h.051a1.491,1.491,0,0,0,.748-.2l.1-.08h0l.2-.152a1.484,1.484,0,0,0,.381-1.442,1.03,1.03,0,0,0-.169-.424,1.491,1.491,0,0,0-.524-.522A1.455,1.455,0,0,0,103.25,44.354Zm-73.062.419h0l-.129.017a.937.937,0,0,0-.15.017l-.049.011-.045.012a.951.951,0,0,0-.174.07.63.63,0,0,0-.279.163.954.954,0,0,0-.326.355l-.021.049a.884.884,0,0,0-.072.163.6.6,0,0,0-.079.294.89.89,0,0,0,.008.417l.013.046.117.279a1.421,1.421,0,0,0,.207.268c.051.045.172.139.238.186l.042.028a.949.949,0,0,0,.469.149.63.63,0,0,0,.337,0,.948.948,0,0,0,.469-.149l.256-.2.074-.089a1.251,1.251,0,0,0,.25-.437v0l.034-.082a.956.956,0,0,0,.022-.494.618.618,0,0,0-.084-.311.605.605,0,0,0-.16-.273.624.624,0,0,0-.221-.222.934.934,0,0,0-.42-.221l-.328-.044Zm-17.522,3.19a1.132,1.132,0,0,0-1.09,1.413l.024.1a1.093,1.093,0,0,0,.435.631,1.241,1.241,0,0,0,.711.223,1.154,1.154,0,0,0,.823-.335,1.139,1.139,0,0,0,.3-.549,1.241,1.241,0,0,0-.014-.608,1.128,1.128,0,0,0-.809-.813l-.1-.024A1.161,1.161,0,0,0,12.666,47.963Zm107.752,5.105a4.8,4.8,0,0,0-2.776,1.111,5.008,5.008,0,0,0-1.057,1.109,2.556,2.556,0,0,0-.472,1.23.078.078,0,0,0,.02.06.1.1,0,0,0,.072.029.1.1,0,0,0,.066-.024,9.832,9.832,0,0,0,.727-.749,5.549,5.549,0,0,1,1.365-1.209,5.165,5.165,0,0,1,1.643-.525,7.725,7.725,0,0,0,1.109-.276.339.339,0,0,0,0-.647A2.115,2.115,0,0,0,120.417,53.068Zm-86.9.674a.742.742,0,0,0-.2.027.734.734,0,0,0-.373.1.753.753,0,0,0-.328.19,1.134,1.134,0,0,0-.381.416c-.051.119-.1.238-.149.353l-.053.395.053.395,0,.012a1.476,1.476,0,0,0,.375.643l.3.229a1.39,1.39,0,0,0,.361.151,1.166,1.166,0,0,0,.345.053,1.123,1.123,0,0,0,.246-.028.729.729,0,0,0,.373-.1.75.75,0,0,0,.327-.19.761.761,0,0,0,.267-.267,1.118,1.118,0,0,0,.265-.5l.052-.395-.052-.395c-.048-.111-.1-.23-.149-.353l-.136-.184a1.009,1.009,0,0,0-.292-.271l-.1-.076a1.1,1.1,0,0,0-.551-.175A.732.732,0,0,0,33.513,53.742Zm71.012.2h-.048a1.193,1.193,0,0,0-.594.161l-.237.185a.875.875,0,0,0-.244.379.885.885,0,0,0-.1.454v.029a.436.436,0,0,0,.021.172.661.661,0,0,0,.024.174,1.241,1.241,0,0,0,.856.856,1.213,1.213,0,0,0,.322.043,1.239,1.239,0,0,0,.872-.358,1.222,1.222,0,0,0,0-1.733,1.213,1.213,0,0,0-.541-.316,1.24,1.24,0,0,0-.327-.047ZM13.16,58.466a1.2,1.2,0,0,0-.158.011.866.866,0,0,0-.429.162.822.822,0,0,0-.3.3l-.084.2a1.36,1.36,0,0,0-.03.238.207.207,0,0,1,0,.03,1.586,1.586,0,0,0,.033.263,1.006,1.006,0,0,0,.18.344.723.723,0,0,0,.271.248l.01.008.011.008.044.031h0l.062.043a.978.978,0,0,0,.5.134H13.3a.736.736,0,0,0,.35-.086.708.708,0,0,0,.317-.2.725.725,0,0,0,.2-.317.744.744,0,0,0,.085-.379.977.977,0,0,0-.134-.5c-.055-.072-.105-.137-.155-.2a.973.973,0,0,0-.434-.254l-.1-.033A.794.794,0,0,0,13.16,58.466Zm78.741.4a1.349,1.349,0,0,0-.679,2.513,1.346,1.346,0,0,0,1.36,0l.021-.009a1.345,1.345,0,0,0,.48-.48,1.338,1.338,0,0,0,0-1.35,1.348,1.348,0,0,0-.48-.48.088.088,0,0,0-.017-.009l0,0A1.357,1.357,0,0,0,91.9,58.866ZM29.069,60.657h-.038a1.288,1.288,0,0,0-.881.355l-.054.062-.027.032-.19.219a1.167,1.167,0,0,0-.3.516c-.014.1-.027.2-.04.291l0,.021a1.172,1.172,0,0,0,1.13,1.17h.08a.859.859,0,0,0,.413-.1.89.89,0,0,0,.378-.242l.222-.186.064-.052.031-.027a1.217,1.217,0,0,0,.309-.532c.018-.118.033-.233.046-.35A1.166,1.166,0,0,0,29.865,61a.9.9,0,0,0-.379-.244A.889.889,0,0,0,29.069,60.657ZM20.98,64.076a1.131,1.131,0,0,0-.889.384,1.352,1.352,0,0,0,0,1.689,1.222,1.222,0,0,0,1.779,0,1.351,1.351,0,0,0,0-1.689A1.131,1.131,0,0,0,20.98,64.076Zm79.714,2.986h-.045a1.459,1.459,0,0,0-.736.2l-.085.066,0,0h0l-.206.158a1.467,1.467,0,0,0-.356.587l-.017.056-.053.389a1.511,1.511,0,0,0,1.407,1.457h.05a1.455,1.455,0,0,0,.734-.2l.3-.227a1.49,1.49,0,0,0,.375-.643c.015-.118.033-.254.052-.387a1.637,1.637,0,0,0-.426-1.031,1.671,1.671,0,0,0-.984-.427Zm-7.26,5.464a1.07,1.07,0,0,0-.691.3l-.041.038h0l-.07.064a.89.89,0,0,0-.257.621.988.988,0,0,0,.257.622l.078.072.035.032a1.1,1.1,0,0,0,.723.3h.03a1.154,1.154,0,0,0,.695-.3.988.988,0,0,0,0-1.45,1.033,1.033,0,0,0-.452-.264l-.273-.037ZM20.387,75.469a1.586,1.586,0,0,0-.8.216l-.32.247a1.2,1.2,0,0,0-.328.509,1.184,1.184,0,0,0-.136.555v.054a.339.339,0,0,0,0,.04c.015.115.031.231.046.344v0l.011.083a1.219,1.219,0,0,0,.29.55.518.518,0,0,0,.148.181,1.621,1.621,0,0,0,.712.416l.329.044h.006l.094.013a1.618,1.618,0,0,0,.764-.192l.051-.028.326-.253a1.215,1.215,0,0,0,.335-.519,1.467,1.467,0,0,0,0-1.245,1.194,1.194,0,0,0-.335-.519.948.948,0,0,0-.344-.276l-.3-.127-.085-.036a1.8,1.8,0,0,0-.448-.058Zm70.8,5.02h-.037a1.118,1.118,0,0,0-.573.155l-.23.177a1.137,1.137,0,0,0-.277.454l-.014.048-.041.3a.843.843,0,0,0,.1.437,1.018,1.018,0,0,0,.6.6.845.845,0,0,0,.391.1h.046a1.131,1.131,0,0,0,.573-.154l.23-.178a1.125,1.125,0,0,0,.292-.5l.041-.3a1.276,1.276,0,0,0-.334-.8,1.289,1.289,0,0,0-.766-.333Zm-61.728.565H29.4a1.663,1.663,0,0,0-.847.229l-.117.09h0l-.222.171a1.711,1.711,0,0,0-.431.74l-.059.446a1.619,1.619,0,0,0,1.031,1.532,1.269,1.269,0,0,0,.592.145H29.4a1.681,1.681,0,0,0,.847-.23l.038-.029c.1-.076.2-.154.3-.233a1.683,1.683,0,0,0,.433-.74l.059-.445a1.87,1.87,0,0,0-.492-1.187,1.908,1.908,0,0,0-1.13-.492ZM85.884,85.5a1.2,1.2,0,0,0-.362.057c-.121.053-.247.1-.368.155h-.005l-.04.023a1.536,1.536,0,0,0,0,2.652l.027.014.012.007a1.165,1.165,0,0,0,.58.186.8.8,0,0,0,.416,0,1.164,1.164,0,0,0,.58-.186l.315-.244a.116.116,0,0,0,.014-.015,1.546,1.546,0,0,0,.4-.679l.055-.41a1.751,1.751,0,0,0-.414-1.053l-.05-.049a1.17,1.17,0,0,0-.5-.323.767.767,0,0,0-.394-.107A1.179,1.179,0,0,0,85.884,85.5Z" transform="translate(140.565 112.528) rotate(180)"/>
      </g>
      <g id="HEAD" transform="translate(38.17 0)">
        <path id="_Skin-2" data-name="âœ‹ Skin" d="M8.92,1.03c8.125-2.391,36.065.06,36.756.578,1.131.942,6.63,3.93,7.486,4.613,7.738,8.222.361,20.431.929,30.35-.036,3.518,1.459,6.731,2.147,10.115a7.717,7.717,0,0,1-.7,5.2c-1.621,2.846-5.045,3.422-7.83,4.57a17.892,17.892,0,0,0-3.867,2.374c-7.99,7.086-12.438,11.938-24.1,10.34a.9.9,0,0,1-1.164.857c-1.431-.584-2.853-1.2-4.3-1.758a1.039,1.039,0,0,1-1.8.3l0,0a19.769,19.769,0,0,1-5.635-8.327A34.941,34.941,0,0,1,4.7,54.524a1.006,1.006,0,0,1,0-.594A77.81,77.81,0,0,1,1.875,26.683a48.7,48.7,0,0,0,.4-5.7A17.686,17.686,0,0,0,.9,16.06C-1.989,9.28,2.433,3.165,8.92,1.03Z" transform="translate(9.326 11.465)" fill="#d08b5b"/>
        <path id="_Ink-2" data-name="ðŸ– Ink" d="M47.631,0a24.322,24.322,0,0,0-7.057,1.1,28.967,28.967,0,0,0-3.358,1.255A29.49,29.49,0,0,0,34.1,3.973a1.545,1.545,0,0,0-.694.814,1.6,1.6,0,0,0-.022.964,1.888,1.888,0,0,0,.565.908,1.466,1.466,0,0,0,.975.385,1.57,1.57,0,0,0,.823-.247A25.421,25.421,0,0,1,44.132,3.53,21.066,21.066,0,0,1,48.172,3.1a11.636,11.636,0,0,1,4.526.826c3.085,1.3,5.481,4.24,7.326,8.992a59.69,59.69,0,0,1,2.015,6.521c.609,2.331,1.381,5.41,1.948,8.564a44.717,44.717,0,0,1,.257,16.35,33.391,33.391,0,0,1-1.386,5.114,2.889,2.889,0,0,0-.264.392,21.051,21.051,0,0,0-1.272,2.888c-.083.217-.169.442-.255.661-.385.67-.82,1.346-1.33,2.064a18.46,18.46,0,0,0-2,1.767,14.384,14.384,0,0,1,4.521,4.485.551.551,0,0,1-.154.765,12.2,12.2,0,0,0-1.541-1.59,19.954,19.954,0,0,0-1.788-1.376,16.2,16.2,0,0,0-2.036-1.478c-.442-.088-.915-.158-1.532-.229a15.127,15.127,0,0,0-1.706-.094,19.336,19.336,0,0,0-2.584.182c-.729.1-2.01.372-3.631.72C43.189,59.5,37,60.833,32.516,60.833a13.167,13.167,0,0,1-3.166-.32,2.515,2.515,0,0,1-1.247-.779,8.157,8.157,0,0,1-.876-1.241h0l-.162-.261a7.282,7.282,0,0,0-.893-1.152,7.654,7.654,0,0,0-1.1-.952l-.089-.063a21.925,21.925,0,0,1-6.035-7.589c-1.646-3.817-3.214-14.9-2.672-15.859a.115.115,0,0,1,.079-.067,8.091,8.091,0,0,0,3.877-1.854h0c.256-.186.52-.378.8-.573a.132.132,0,0,0,.047-.15.1.1,0,0,0-.1-.079.123.123,0,0,0-.042.008,19.26,19.26,0,0,1-3.325.8,8.041,8.041,0,0,1-1.337.121,4.821,4.821,0,0,1-1.7-.283,4.037,4.037,0,0,1-2.519-3.222,8.7,8.7,0,0,1-.175-1.7v-.166a7.1,7.1,0,0,1,1.64-5.126,3.619,3.619,0,0,1,.96-.7,3.572,3.572,0,0,1,1.134-.353,2.33,2.33,0,0,1,.309-.021,3.345,3.345,0,0,1,1.2.275,6.916,6.916,0,0,0,.681.222,1.579,1.579,0,0,0,.39.051,1.171,1.171,0,0,0,.89-.374,1.055,1.055,0,0,0,.257-.83c.211-.185.413-.38.565-.529h0a1.463,1.463,0,0,0,.342-.216,2.351,2.351,0,0,0,.432-.478,1.161,1.161,0,0,0,.705-.455c.411-.531.8-1.081,1.158-1.636.573-.61,1.247-1.331,1.9-2.056.606-.668,1.208-1.359,1.791-2.028l.012-.013.428-.491.371-.423c.39-.444.792-.9,1.2-1.368l.119-.134.025-.028a2.169,2.169,0,0,0,.726-1.4.621.621,0,0,0-.174-.473.788.788,0,0,0-.566-.245.689.689,0,0,0-.172.021,2.225,2.225,0,0,0-1.207,1h0c-.049.065-.1.133-.15.2l-.6.766-.561.722c-.2.26-.408.524-.607.779l-.021.027-.211.27a1.342,1.342,0,0,0-.5-.847,1.588,1.588,0,0,0-.914-.374l-.148-.006c-.133,0-.266-.007-.395-.007a8.571,8.571,0,0,0-2.161.25,4.345,4.345,0,0,0-1.884.972,4.6,4.6,0,0,0-1.928-1.167,3.438,3.438,0,0,0-1.024-.157,3.615,3.615,0,0,0-1.957.587A3.679,3.679,0,0,0,12.6,11.147a6.6,6.6,0,0,0-4.473-.279,1.232,1.232,0,0,0-.564,2l.027.029.007.008a1.031,1.031,0,0,0-.2.579,1.136,1.136,0,0,0,.073.381.925.925,0,0,1,.066.407c-.051.318-.267.479-.641.479a4.267,4.267,0,0,1-1.447-.408l-.074-.031a.745.745,0,0,0-.261-.06.772.772,0,0,0-.217-.031,1.073,1.073,0,0,0-.871.54,1.217,1.217,0,0,0-.181.517,1.026,1.026,0,0,0,.1.558c.361.747.723,1.508,1.074,2.245v0c.5,1.059,1.027,2.155,1.552,3.227-.121-.041-.236-.075-.342-.1a3.386,3.386,0,0,0-.842-.106,3.075,3.075,0,0,0-1.117.2,2.086,2.086,0,0,0-.862.6,1.7,1.7,0,0,0-.346.7,2.184,2.184,0,0,0,0,.912,1.031,1.031,0,0,0,.33.57,1.622,1.622,0,0,0,.572.335,3.652,3.652,0,0,0,1.078.173,2.639,2.639,0,0,1,.922.159A8.527,8.527,0,0,1,7.968,26.07a10.486,10.486,0,0,1,1.7,1.763,6.893,6.893,0,0,0,1.086,2.594l.008.01c.03.042.062.084.094.125a3.793,3.793,0,0,0-2.46,1.681,10.661,10.661,0,0,0-1.1,2.81,16.294,16.294,0,0,1-1.038,2.871l-.131.254c-1.014,1.978-1.977,4.32-1.438,6.7A5.638,5.638,0,0,0,5.1,46.051c-.268-.033-.54-.064-.8-.094l-.042,0a.714.714,0,0,0-.08,0,1.052,1.052,0,0,0-.833.508.942.942,0,0,0-.132.872c.132.313.282.627.445.934a10.61,10.61,0,0,0,1.641,2.27l-.609.014h0c-.866.019-1.761.038-2.632.14a2.888,2.888,0,0,0-1.415.527,1.637,1.637,0,0,0-.468.552A1.576,1.576,0,0,0,0,52.53,2.343,2.343,0,0,0,.63,54a5.282,5.282,0,0,0,1.286,1.039,10.809,10.809,0,0,0,1.506,1.627,11.072,11.072,0,0,0,1.8,1.286,6.431,6.431,0,0,1-.77.125l-.131.012a5.881,5.881,0,0,0-2.05.565.8.8,0,0,0-.449.591,1.1,1.1,0,0,0,.253.934,2.677,2.677,0,0,0,2.049.874,5.694,5.694,0,0,0,2.541-.736,3.91,3.91,0,0,1-.335.373l-.074.071a.666.666,0,0,0-.188.757.848.848,0,0,0,.756.531.736.736,0,0,0,.506-.21,5.09,5.09,0,0,0,.609-.683l.017.036a15.7,15.7,0,0,0,3.961,5.019l.384.32c.286.24.548.462.8.678a15.673,15.673,0,0,0,2.648,1.983,5.509,5.509,0,0,0,1.358.508,7.463,7.463,0,0,0,1.685.172c.394,0,.814-.021,1.286-.065a7.94,7.94,0,0,0-.113,2.177l.005.089a10.871,10.871,0,0,0,.89,3.8,5.373,5.373,0,0,0,2.589,2.772.919.919,0,0,0,.386.086.829.829,0,0,0,.648-.3.793.793,0,0,0,.137-.686,12.084,12.084,0,0,0-.438-1.49,17.538,17.538,0,0,0,5.267,3.781,9.976,9.976,0,0,0,4.075.956,7.49,7.49,0,0,0,1.258-.105,6.821,6.821,0,0,0,1.991-.7,20.53,20.53,0,0,0,1.805-1.1c.269-.177.547-.36.824-.534a11.557,11.557,0,0,1,4.876-1.685,17.625,17.625,0,0,1,2.014-.112,28.639,28.639,0,0,1,5.248.558,46.822,46.822,0,0,1,4.811,2.474,26.76,26.76,0,0,1,2.778,1.845l.087.067c.131.1.262.211.389.317a3.592,3.592,0,0,0,2.187,1.1,2.139,2.139,0,0,0,.565-.079,2.688,2.688,0,0,0,1.863-2.282c.324.34.648.7.963,1.074a1.549,1.549,0,0,0,1.21.528,2.006,2.006,0,0,0,1.138-.356,1.685,1.685,0,0,0,.422-.417,1.454,1.454,0,0,0,.236-.552,20.14,20.14,0,0,0,.04-7.792c-.077-.4-.168-.792-.271-1.167A21.09,21.09,0,0,1,69.535,74.3a.887.887,0,0,0,.77.461.991.991,0,0,0,.653-.258,1.036,1.036,0,0,0,.337-.681c.021-.233.034-.473.037-.711a.814.814,0,0,0,.518-.963,69.987,69.987,0,0,0-2-7.482,7.939,7.939,0,0,0,1.4.592,5.005,5.005,0,0,0,1.452.232,3.748,3.748,0,0,0,1.26-.212,3.388,3.388,0,0,0,1.329-.85,3.633,3.633,0,0,0,.775-1.269,5.694,5.694,0,0,0,.159-3.071,9,9,0,0,0-1.576-3.5,10.322,10.322,0,0,0-1.277-1.438,11.076,11.076,0,0,0-1.521-1.191c-.226-.341-.493-.748-.752-1.175a9.009,9.009,0,0,0-.618-3.283,6.982,6.982,0,0,0-2.279-2.946,2.108,2.108,0,0,0-.751-.857,1.979,1.979,0,0,0-1.073-.345,1.51,1.51,0,0,0-.281.026l-.043.009,0,0c.2-.723.386-1.488.547-2.274a32.6,32.6,0,0,0,.588-4.463,41.076,41.076,0,0,0,.028-4.505c-.067-1.438-.2-2.909-.407-4.5-.181-1.4-.416-2.849-.716-4.444l-.035-.187c-.478-2.518-1.019-5.215-1.726-7.879a46.226,46.226,0,0,0-2.665-7.6,21.389,21.389,0,0,0-1.788-3.152,17.119,17.119,0,0,0-2.324-2.731A12.572,12.572,0,0,0,51.267.34,19.1,19.1,0,0,0,47.631,0ZM18.472,66.352a6.229,6.229,0,0,1-3.756-1.52.51.51,0,0,1-.209-.341,20.4,20.4,0,0,0,3.266.909,18.005,18.005,0,0,0,2.663.355.534.534,0,0,1-.257.225A4.129,4.129,0,0,1,18.472,66.352Zm.38-42.974a1.6,1.6,0,0,0-1.266.723,4.473,4.473,0,0,0-.421.733,3.26,3.26,0,0,1-.62.953l-.119.116a2.506,2.506,0,0,1-1.561.876.93.93,0,0,1-.147-.011h-.014a.1.1,0,0,0-.093.073.073.073,0,0,0,.041.085c.17.093.32.2.466.294a2.828,2.828,0,0,0,.928.472,3.213,3.213,0,0,0,.8.1,3.3,3.3,0,0,0,.8-.1,3.854,3.854,0,0,0,1.791-1.027,2.838,2.838,0,0,0,.853-1.83,1.323,1.323,0,0,0-.3-.88,1.52,1.52,0,0,0-.769-.526A1.41,1.41,0,0,0,18.852,23.378Zm4.474,8.145a.476.476,0,0,0-.206.045,1.379,1.379,0,0,0-.563.481,1.5,1.5,0,0,0-.239.663,1.824,1.824,0,0,0,.635,1.6.3.3,0,0,0,.189.072.269.269,0,0,0,.223-.118A.274.274,0,0,0,23.387,34l-.008-.02a1.884,1.884,0,0,1,.386-1.77A.392.392,0,0,0,23.8,31.8.551.551,0,0,0,23.326,31.523Zm2.265,6.217a.491.491,0,0,0-.382.177.521.521,0,0,0-.1.438c.2,1.009.476,2.013.747,2.983a30.218,30.218,0,0,1,.887,3.807,23.15,23.15,0,0,1,.173,6.834.126.126,0,0,0,.028.1.118.118,0,0,0,.088.041.109.109,0,0,0,.1-.081,17.312,17.312,0,0,0,.91-6.936l-.012-.221a18.857,18.857,0,0,0-.516-3.617,9.409,9.409,0,0,0-1.5-3.3A.532.532,0,0,0,25.591,37.74Zm-5.964,5.345a.286.286,0,0,0-.212.106.267.267,0,0,0-.06.222,1.139,1.139,0,0,0,.387.619,1.071,1.071,0,0,0,.672.284.629.629,0,0,0,.512-.259.286.286,0,0,0,.05-.258.488.488,0,0,0-.277-.3.409.409,0,0,0-.153-.027,1.078,1.078,0,0,0-.145.013,1.091,1.091,0,0,1-.147.013.444.444,0,0,1-.088-.008.484.484,0,0,1-.327-.248l-.015-.028A.22.22,0,0,0,19.627,43.085Zm-.575,5.173a.1.1,0,0,0-.085.054.116.116,0,0,0-.007.113,1.621,1.621,0,0,0,.529.58,1.313,1.313,0,0,0,.723.23,1.122,1.122,0,0,0,.575-.159.274.274,0,0,0,.117-.312.247.247,0,0,0-.241-.194H20.65l-.162.007c-.1,0-.18.005-.252.005a1.8,1.8,0,0,1-1.129-.306A.088.088,0,0,0,19.052,48.258Z" transform="translate(76.355 83.106) rotate(180)"/>
      </g>
      <g id="FACE" transform="translate(53.146 40.977)">
        <path id="_Ink-3" data-name="ðŸ– Ink" d="M16.45,0a5.8,5.8,0,0,0-2.2.439,6.213,6.213,0,0,0-1.436.825,6.117,6.117,0,0,0-1.169,1.179,1.208,1.208,0,0,0-.244.935,1.348,1.348,0,0,0,.525.845,1.292,1.292,0,0,0,.769.268,1.116,1.116,0,0,0,.172-.013,1.188,1.188,0,0,0,.8-.526l.047-.065a4.1,4.1,0,0,1,1.5-1.262A3.413,3.413,0,0,1,16.7,2.277a3.3,3.3,0,0,1,.37.021,4.957,4.957,0,0,1,3.033,1.739c.1.1.205.212.342.358a.541.541,0,0,0,.284.219.581.581,0,0,0,.185.029.628.628,0,0,0,.514-.269.574.574,0,0,0,.1-.378,3.888,3.888,0,0,0-1.29-2.473A5.652,5.652,0,0,0,18.908.6,5.543,5.543,0,0,0,17.43.089,5.44,5.44,0,0,0,16.45,0ZM18,8.771h0a5.314,5.314,0,0,0-1.9.382,9.572,9.572,0,0,0-2.229,1.265.857.857,0,0,0-.311.495,1.026,1.026,0,0,0,.044.556,1.264,1.264,0,0,0,.375.543.913.913,0,0,0,.585.228.83.83,0,0,0,.452-.139l.151-.116h0a5.759,5.759,0,0,1,3.068-1.5,1.831,1.831,0,0,1,1.365.605,2.02,2.02,0,0,1,.383,1.626,4.429,4.429,0,0,1-2.048,2.437.383.383,0,0,0-.1.44.569.569,0,0,0,.554.394.775.775,0,0,0,.131-.012,4.134,4.134,0,0,0,1.454-.525,3.3,3.3,0,0,0,.978-.9,3.585,3.585,0,0,0,.624-2.394,3.824,3.824,0,0,0-1.041-2.337A3.444,3.444,0,0,0,18,8.771ZM5.665,17.337a1.243,1.243,0,0,0-.807.316,1.257,1.257,0,0,0-.423.813,9.158,9.158,0,0,0,.049,2.384c.029.232.058.471.079.729A1.427,1.427,0,0,0,5.1,22.6a1.665,1.665,0,0,0,1.024.36,1.262,1.262,0,0,0,.775-.244,1.149,1.149,0,0,0,.428-.762,6.4,6.4,0,0,0-.668-3.942A1.1,1.1,0,0,0,5.665,17.337Zm18.1.541a1.087,1.087,0,0,0-.852.365,3.673,3.673,0,0,0-.786,1.948,2.257,2.257,0,0,0,.615,1.937,1.277,1.277,0,0,0,.1.15,1.393,1.393,0,0,0,1.072.617,1.161,1.161,0,0,0,.325-.048,1.568,1.568,0,0,0,1.047-.914,3.234,3.234,0,0,0,.13-1.768,5.92,5.92,0,0,0-.536-1.668,1.082,1.082,0,0,0-.463-.458A1.4,1.4,0,0,0,23.769,17.878ZM.2,23.558a.2.2,0,0,0-.165.1.221.221,0,0,0-.013.217,7.514,7.514,0,0,0,1.684,2.132,10.412,10.412,0,0,0,2.254,1.54,9.69,9.69,0,0,0,2.677.934l.286.05a6.962,6.962,0,0,0,1.168.127,1.8,1.8,0,0,0,1.442-.538,1.225,1.225,0,0,0,.29-.87.8.8,0,0,0-.29-.569,2.22,2.22,0,0,0-1.522-.447c-.12,0-.244,0-.364.006h0c-.115,0-.246.006-.376.006s-.226,0-.326-.009a10.288,10.288,0,0,1-2.266-.386A15.393,15.393,0,0,1,.306,23.592.188.188,0,0,0,.2,23.558Zm27.566,1.154h0l-.121.03a6.817,6.817,0,0,0-1.322.516l-.429.212a11.919,11.919,0,0,1-1.533.653,18.083,18.083,0,0,1-3.492.771,1.426,1.426,0,0,0-.7.266,1.05,1.05,0,0,0-.392.6,1.068,1.068,0,0,0,.121.895,1.14,1.14,0,0,0,.553.477,1.243,1.243,0,0,0,.471.09,1.388,1.388,0,0,0,.272-.027l.219-.045a15.623,15.623,0,0,0,3.771-1.225,7.625,7.625,0,0,0,1.659-1.091,4.843,4.843,0,0,0,1.172-1.516c.041-.317,0-.395-.039-.448l-.012-.015-.011-.015a.3.3,0,0,0-.187-.125Z" transform="translate(28.034 29.218) rotate(180)"/>
      </g>
    </g>
  </g>
</svg>
