<svg xmlns="http://www.w3.org/2000/svg" width="279" height="671.828" viewBox="0 0 279 671.828">
  <g id="Group_13" data-name="Group 13" transform="translate(-51 -79)">
    <g id="Group_12" data-name="Group 12" transform="translate(-4 13)">
      <g id="Group_9" data-name="Group 9">
        <g id="Group_6" data-name="Group 6" transform="translate(100.163 179.869)">
          <g id="pose_sitting_closed_legs-1" data-name="pose/sitting/closed_legs-1" transform="translate(0 39.986)">
            <path id="_Skin" data-name="âœ‹ Skin" d="M144.446,162.439c-3.225-4.59-10.023-5.35-14.39-8.566-2.3-1.764-4.735-2.932-6.523-5.307,2.847-3.345-.674-11.186-1.4-15.715-2.871-11.856-5.526-23.9-8.94-35.743,5.917,1.842,4.375-9.189,3.53-11.739-.058-.351-.493-.421-.759-.531.074-.5.279-.611-.342-.749-.208-3,.641-6.362-.893-9.013a12.165,12.165,0,0,0-9.279-5.356c-2.4-9.53-2.839-14.026-14.207-9.986a3.709,3.709,0,0,0-.108-2.717C89.428,51.85,87.28,46.2,85.412,40.962a165.6,165.6,0,0,0-7.259-18.044c-2.005-3.676-8.279-4.659-12.532-4.05-1.014-1.79-3.572-6.742-6.806-5.6q-.037-2.24-.067-4.48a10.41,10.41,0,0,0-.379-3.862A4.622,4.622,0,0,0,55.5,2.434C51.672,1.17,47.275-.862,43.237.4c-3.528,1.611-3.117,7.667-4.825,10.959-2.393-3.549-6.474-1.169-7.337,2.637-9.83,3.919-18.279-.533-18.908,14.851a28.924,28.924,0,0,1,.746,8.267l-.3.03A196.626,196.626,0,0,0,9.741,80.573c-.122,5.981-2.3,11.563-4.408,16.961a67.1,67.1,0,0,0-3.909,12.283c-.841,3.507-3.934,20.37,2.943,14.772.263,19.185,17.356,21.641,32.748,17.4,16.34-3.4,34.735-2.421,44.933-18.858A37.157,37.157,0,0,1,87.569,138.9c.953,4.536,2.337,9.688,4.881,12.688a25.254,25.254,0,0,0-3.157,11.878c.042,1.23-.521,1.8.287,2.564,3.877,3.667,12.528,3.708,19.105,5.341,4.51.574,20.819,2.771,23.311,1.339,1.738.486-.283-4.038,1.455-4.135.595,0,.674-.753,1.285-.725,3.9.178,12.3,1.324,10.271-1.82Z" transform="translate(0.543 0)" fill="#d08b5b"/>
            <path id="_Shoes" data-name="ðŸ‘Ÿ Shoes" d="M38.147,25.823c-9.871-.374-23.54-3.151-33.154-5.237C2.5,20.116.722,18.811.2,17.7a4.483,4.483,0,0,1,.067-2.465c.182-.849-.356-1.8-.257-2.709a13.973,13.973,0,0,1,1.48-4.185c.907-1.537,1.527-5.46,1.6-5.418a15.409,15.409,0,0,0,3.982,1.45c.018.005.362.879.38.885l.019.053A4.429,4.429,0,0,0,8.957,7.341a3.746,3.746,0,0,0,2.27.688c2.069.264,3.406-.759,5.369-2.118l.145,0c.218,0,.443,0,.672,0A5.077,5.077,0,0,0,20.7,5.193l.07-.059q.032.031.067.06a1.169,1.169,0,0,0,.135.1c.2-.117.392-.235.585-.353.653-.4,2.443-1.4,2.459-1.373.539.913,9.346-4.219,10.11-3.493.978.929,3.2,4.466,6.475,5.991,5.8,2.7,9.824,4.657,12.866,6.939s1.439,3.675,1.739,3.8c.761.326.472,2.692.435,3.042-.033.31-4.236.834-6.845.761-2.957-.084-4.375-.769-4.641-.37-1.065,1.453-.357,4.607-.357,4.607A7.952,7.952,0,0,1,38.147,25.823Z" transform="translate(89.852 147.705)" fill="#fff"/>
            <path id="_Jacket" data-name="ðŸ§¥ Jacket" d="M1.015,114.174c-.226-.444-2.1-3.608-.1-13.122C2.931,91.483,8.7,78.394,8.956,76.278c-.009-2.36.09-7.557.053-9.919l.239-4.916L9.465,57c1.346-27.443,3-42.344,3.225-43.181a9.56,9.56,0,0,1,6.056-6.866l.1-.038A24.284,24.284,0,0,1,22.176,6l.7-.151.176-.039.243-.056.113-.027c1.629-.392,4.717-.523,6.8-1.861C31.856,2.817,32.3,1.151,33.22.576A4.3,4.3,0,0,1,35.28,0h.057a3.625,3.625,0,0,1,.955.13,4.031,4.031,0,0,1,.949.79q.069.078.133.156c-.025.061-.05.122-.075.182l-.049.122a3.877,3.877,0,0,0-.307,1.127l-.038.579-.317-.224a33.989,33.989,0,0,0,1.992,4.361l.686,1.307,2.342,4.484c.535,1.02,1.031,1.963,1.354,2.563l.067.132.138.276a2.02,2.02,0,0,0,.768.942c.037.02.074.039.111.055q.022.067.042.136c.2.664,10.5,38.121,10.518,38.135.186.169,15.1,4.059,18.674,4.8.279.058.558.12.837.182a5.035,5.035,0,0,0,1,.074h.068c.931,0,2.107-.105,2.848-.116q.092-.236.181-.473l.069-.185a2.03,2.03,0,0,1,.216-.026l.093,0h.048c1.321.013,3.213,1.291,4.437,2.17l.47.34.093.066.272.192-.124.25c-1.865,3.763-3.528,7.62-5.06,11.53h0q-.437,1.109-.858,2.224l-.21.557-.511-.088-.2-.035c-.719-.13-35.4-.111-35.4-.111L1.318,114.659A3.346,3.346,0,0,1,1.015,114.174ZM89.581,57.046c-1.294-.014-5.161-7.064-6.52-7.063-2.9,0-10.54,0-10.54,0s-7.434-18.39-9.385-24.7C60.057,15.332,60.205,10.174,60.1,9.812a1,1,0,0,0-.09-.39L59.97,9.33q-.285-1.018-.576-2.035L59.2,6.617l-.415.073c-.02-.054-.04-.109-.059-.164a19.6,19.6,0,0,1-.771-2.994q-.027-.153-.052-.306c.1-.028.2-.051.315-.071a3.271,3.271,0,0,1,.5-.052h.059c.079,0,.156,0,.233.008l.069.006.06.031c1.6.85,3.051,3.2,4.258,5.9l1.566-.187.611-.07c.331-.037.612-.065.771-.076l.072,0,.244.025c3.728.392,8.538,1.1,10.511,4.566,1.975,4.786,13.167,35.63,13.594,36.058a.338.338,0,0,0,.05.042l.505.337-1.429.235c-.149.063,1.074,7.069-.307,7.069Z" transform="translate(1.584 9.562)" fill="#e86bbb"/>
            <path id="_Top" data-name="ðŸ‘• Top" d="M13.609,32.33A50.761,50.761,0,0,1,8.46,31.284c-.22-.44-1.893-6.931-1.893-6.931q-1.385-4.925-2.74-9.859C2.586,10,.022.335,0,.259A26.481,26.481,0,0,0,7.8,1.774C11.557,1.817,16.864.015,16.884,0c.014.049,9.534,26.2,9.488,26.21a44.1,44.1,0,0,0-6.761,2.653A53.31,53.31,0,0,0,13.609,32.33Z" transform="translate(47.726 33.322)" fill="#fff"/>
            <path id="_Ink" data-name="ðŸ– Ink" d="M127.456,171.863h0c-1.6,0-3.474-.106-5.572-.315-1.8-.179-3.818-.44-6-.775-3.994-.613-7.821-1.36-10.615-1.906h0c-.915-.179-1.7-.333-2.359-.455-3.109-.693-6.415-1.456-9.64-2.487a6.218,6.218,0,0,1-2.009-.888,4.337,4.337,0,0,1-1.475-1.586,2.643,2.643,0,0,1-.288-1.075,2.677,2.677,0,0,1,.233-1.188,5.9,5.9,0,0,1-.4-1.021,5.618,5.618,0,0,1-.188-1.01,6.667,6.667,0,0,1,.133-1.993,19.28,19.28,0,0,1,1.458-3.916c.329-.722.669-1.469.945-2.2a10.246,10.246,0,0,0,.593-2.213,9.568,9.568,0,0,1-1.361-1.185c-.02.086-.038.172-.055.254l-.012.055-.1-.06h0a1.628,1.628,0,0,1-.316-.227c.063-.13.119-.243.173-.347l0-.008,0,0a6.565,6.565,0,0,1-.943-1.375,9.687,9.687,0,0,1-.638-1.569A26.7,26.7,0,0,1,88.278,141h0c-.049-.274-.1-.557-.15-.83-.2-1.12-.393-2.311-.582-3.463h0c-.307-1.868-.6-3.633-.821-4.656-.168-.764-.38-1.548-.629-2.332-.236-.743-.515-1.511-.827-2.282a.313.313,0,0,0-.021-.124c-1.806-4.793-3.459-9.729-5.058-14.5-.991-2.958-2.016-6.017-3.067-9.012-.834-2.377-1.616-4.513-2.39-6.528a.335.335,0,0,0-.324-.22.344.344,0,0,0-.284.136.265.265,0,0,0-.02.257c1.968,5.124,3.739,10.416,5.452,15.533.866,2.587,1.762,5.262,2.673,7.885.154.442.306.876.461,1.318l-.051-.091,0-.007-.088-.155a33.4,33.4,0,0,1-6.123,7.41,32.578,32.578,0,0,1-3.828,3,26.913,26.913,0,0,1-4.118,2.271,33.47,33.47,0,0,1-4.286,1.543c-1.364.393-2.8.727-4.391,1.019-2.956.544-6.02.861-8.983,1.167-2.5.258-5.079.525-7.61.928,2.16-1.614,4.26-3.382,6.291-5.093.795-.669,1.617-1.361,2.43-2.034a.272.272,0,0,0,.081-.318.361.361,0,0,0-.318-.246.275.275,0,0,0-.158.051c-2.456,1.69-5.026,3.3-7.511,4.851-1.89,1.182-3.844,2.4-5.735,3.654l-.154.03-.376.075c-.21.053-.437.108-.713.174-.31.1-.629.2-.947.3a6.7,6.7,0,0,1-1.818.317h-.067a49.147,49.147,0,0,1-9.271.969c-5.933,0-10.677-1.407-14.1-4.182a15.313,15.313,0,0,1-2.475-2.537,16.747,16.747,0,0,1-1.937-3.222,21.005,21.005,0,0,1-1.341-3.951,28.939,28.939,0,0,1-.686-4.724,2.988,2.988,0,0,1-.855.491A2.952,2.952,0,0,1,2.7,124a2.1,2.1,0,0,1-1.585-.7,4.125,4.125,0,0,1-.907-1.808A6.884,6.884,0,0,1,.013,119.4c-.017-.985,0-2,.062-3.026.056-.98.147-1.994.271-3.014a58.2,58.2,0,0,1,1.06-5.96c.185-1.022.419-2.055.716-3.156.265-.981.574-2,.945-3.1.69-2.052,1.494-4.112,2.271-6.1,1.045-2.676,2.125-5.443,2.937-8.217a38.771,38.771,0,0,0,1-4.208,28.262,28.262,0,0,0,.436-4.333c-.153-3.819-.207-7.645-.162-11.373.046-3.821.2-7.644.451-11.364.26-3.81.633-7.617,1.11-11.315.488-3.786,1.1-7.563,1.814-11.226a32.94,32.94,0,0,1-.624-3.643,25.432,25.432,0,0,1-.154-3.536,20.314,20.314,0,0,1,.378-3.4,17.383,17.383,0,0,1,.974-3.221,12.423,12.423,0,0,1,1-1.729,9.738,9.738,0,0,1,1.13-1.348,8.84,8.84,0,0,1,2.587-1.773,11.332,11.332,0,0,1,1.425-.535c.459-.14.947-.262,1.492-.373,1.014-.207,2.038-.34,3.123-.48a22.2,22.2,0,0,0,6.883-1.663,8.076,8.076,0,0,1,1.385-2.737,4.977,4.977,0,0,1,1.1-1,4.832,4.832,0,0,1,1.451-.641,4.656,4.656,0,0,1,1.006-.111,3.877,3.877,0,0,1,1.476.275,2.908,2.908,0,0,1,1.2.884c.018-.047.037-.1.059-.16.129-.364.259-.735.385-1.094l0-.011A55.312,55.312,0,0,1,41.858.072.129.129,0,0,1,41.979,0a.167.167,0,0,1,.12.05.125.125,0,0,1,.035.1A55.406,55.406,0,0,1,41.1,7.217l0,.009c-.079.416-.161.845-.239,1.268-.031.164-.056.342-.082.53h0a6.137,6.137,0,0,1-.259,1.24,1.52,1.52,0,0,1-.734.9,1.167,1.167,0,0,1-.5.128c.79,1.209,1.707,2.883,2.377,4.1.433.79.746,1.361.844,1.477,1.182,2.079,2.153,3.809,3.055,5.446l.12.2,0,.005.1.17a10.645,10.645,0,0,1,1.573,4.47c.091.471.185.958.3,1.446.208.716.4,1.38.588,2.031,1.143.339,2.1.615,3.123.831a21.823,21.823,0,0,0,4.383.447,21,21,0,0,0,3.549-.3,19.8,19.8,0,0,0,3.444-.915,1.3,1.3,0,0,1,.472-.1c-.624-2.249-1.114-4.275-1.5-6.195A56.83,56.83,0,0,1,60.8,18.12a.932.932,0,0,1-.639-.465A15.275,15.275,0,0,1,58.2,10.986a14.7,14.7,0,0,1,1.193-6.838.124.124,0,0,1,.12-.071.173.173,0,0,1,.127.054.115.115,0,0,1,.029.092,22.587,22.587,0,0,0,.058,6.1,2.853,2.853,0,0,1,.657-.077,3.088,3.088,0,0,1,.948.155,4.231,4.231,0,0,1,.9.425,7.732,7.732,0,0,1,1.647,1.422,15.907,15.907,0,0,1,1.375,1.789c.434.646.8,1.269,1.038,1.681.054.1.1.187.147.272a17.069,17.069,0,0,1,1.973-.108,25.616,25.616,0,0,1,2.576.139,14.31,14.31,0,0,1,2.365.393,11.757,11.757,0,0,1,2.254.82,9.209,9.209,0,0,1,1.982,1.3,7.744,7.744,0,0,1,1.551,1.827c.7,1.4,1.369,2.847,2.054,4.425.611,1.405,1.218,2.883,1.857,4.517,1.186,3.034,2.3,6.159,3.383,9.181v0c.915,2.56,1.86,5.207,2.843,7.782.974,2.719,1.856,5.244,2.695,7.72.058.185.124.372.188.552a7.748,7.748,0,0,1,.309,1.013,2.548,2.548,0,0,1,.017,1.051A18.438,18.438,0,0,1,98.4,55.457a8.053,8.053,0,0,1,2.158.264,4.174,4.174,0,0,1,1.669.866,5.91,5.91,0,0,1,1.01,1.05A8.023,8.023,0,0,1,104,58.882a15.083,15.083,0,0,1,1.006,2.749c.2.743.391,1.5.578,2.234h0c.254,1,.518,2.03.8,3.04a9.908,9.908,0,0,1,2.634.53,13.7,13.7,0,0,1,2.636,1.221,11.629,11.629,0,0,1,4.057,3.85,6.812,6.812,0,0,1,.643,1.523,9,9,0,0,1,.3,1.592,23.906,23.906,0,0,1,.032,3.292h0c-.029.818-.06,1.664-.024,2.478a.584.584,0,0,1,.306.217.754.754,0,0,1,.133.589,1.055,1.055,0,0,1,.653.713,17.342,17.342,0,0,1,.539,2.337,23.858,23.858,0,0,1,.305,3,11.445,11.445,0,0,1-.99,5.7,3.794,3.794,0,0,1-.9,1.083,3.056,3.056,0,0,1-1.262.6,2.146,2.146,0,0,1-.274.017,2.838,2.838,0,0,1-.662-.085c.107.348.2.668.263.9.022.076.042.149.058.205,1.149,4.221,2.343,8.854,3.65,14.165,1.166,4.739,2.311,9.561,3.418,14.224l0,.015c.418,1.762.851,3.583,1.278,5.374.153.942.486,2.189.872,3.633h0a58.757,58.757,0,0,1,1.392,6.078l.009.069c.247,1.934.527,4.126-.579,5.837a6.027,6.027,0,0,1,1.646.978,19.315,19.315,0,0,1,1.437,1.329,15.142,15.142,0,0,0,1.836,1.63,8.16,8.16,0,0,0,1.251,1,17.434,17.434,0,0,0,1.6.933c1.157.606,2.453,1.175,3.824,1.777a38.615,38.615,0,0,1,6.351,3.248,10.96,10.96,0,0,1,1.207.967,6.822,6.822,0,0,1,.935,1.062,4.658,4.658,0,0,1,.6,1.174,4.013,4.013,0,0,1,.209,1.3.773.773,0,0,1,.406.557c.336,1.618.236,2.77-.3,3.425a1.61,1.61,0,0,1-.627.468,2.451,2.451,0,0,1-.958.173h-.078a40.71,40.71,0,0,1-4.752.36,14.182,14.182,0,0,1-4.426-.621,6.048,6.048,0,0,1-1.158,1.6.459.459,0,0,1,.36.166,1.248,1.248,0,0,1,.156.842,9.836,9.836,0,0,1-.162,1.13,4.616,4.616,0,0,0-.123,1.009,4.829,4.829,0,0,1-1.171.592,9.6,9.6,0,0,1-1.535.4A22.745,22.745,0,0,1,127.456,171.863ZM90.123,161.817a2.491,2.491,0,0,0,.2.824,2.714,2.714,0,0,0,.445.691,3.806,3.806,0,0,0,.639.573,5.885,5.885,0,0,0,.785.471,17.47,17.47,0,0,0,3.629,1.179c.3.073.582.142.837.21,2.255.6,4.562,1.158,6.857,1.66,2.28.5,4.61.955,6.924,1.356s4.648.754,6.977,1.055,4.676.555,7.015.757c1.15.094,2.387.181,3.637.181a20.691,20.691,0,0,0,2.477-.137,14.347,14.347,0,0,0,2.43-.5c.043-.619.1-1.351.153-2.085a7.778,7.778,0,0,1-1.983.93,7.414,7.414,0,0,1-2.175.331,6.7,6.7,0,0,1-1.835-.252c-.8.038-1.634.058-2.468.058-1.781,0-3.6-.085-5.56-.259-1.744-.155-3.559-.378-5.548-.682-3.693-.564-7.418-1.323-11.02-2.057l-.008,0c-1.375-.28-2.8-.57-4.188-.843-.445-.1-.893-.19-1.368-.286h0a22.8,22.8,0,0,1-3.77-.982,8.174,8.174,0,0,1-1.686-.874A6,6,0,0,1,90.123,161.817Zm35.133,5.094a9.318,9.318,0,0,1,2.035.29c.4.088.82.18,1.249.238.166.014.336.02.5.02a5.881,5.881,0,0,0,2.288-.451,4.7,4.7,0,0,0,1.005-.58,4.072,4.072,0,0,0,.82-.831,4.816,4.816,0,0,0,.795-1.9,3.247,3.247,0,0,0-.165-1.666,3.786,3.786,0,0,0-.645-1.087,5.34,5.34,0,0,0-.995-.911,8.389,8.389,0,0,0-2.681-1.228c-1.043-.4-2.111-.759-3.243-1.14h0a42.83,42.83,0,0,1-6.718-2.688,15.323,15.323,0,0,1-2.9-1.992,11.9,11.9,0,0,1-1.234-1.264,11.147,11.147,0,0,1-1.049-1.482,16.139,16.139,0,0,0-1.982,1.084c-.208.127-.423.258-.641.386a1.31,1.31,0,0,1-.2-.137,3.161,3.161,0,0,1-1.482.629,9.73,9.73,0,0,1-1.679.105h-.393c-.177,0-.385,0-.585.007a15.346,15.346,0,0,1-1.385.852,13,13,0,0,1-1.468.686,8.244,8.244,0,0,1-2.966.623,4.47,4.47,0,0,1-2.643-.787,4.552,4.552,0,0,1-1.066-1.077A6.645,6.645,0,0,1,97,150.988a18.747,18.747,0,0,1-2.081-.71,13.854,13.854,0,0,1-1.928-.969,7.882,7.882,0,0,1-.149,2.661c-.184.9-.468,1.815-.743,2.7-.664,2.131-1.29,4.143-.4,5.63.624,1.038,1.944,1.733,4.034,2.125,4.91,1.065,9.713,2.088,14.482,2.892,2.605.439,5,.78,7.306,1.041,2.581.292,4.988.478,7.36.568C125.009,166.915,125.132,166.911,125.256,166.911Zm19.292-3.9a32.95,32.95,0,0,1-7.254,1.333c-.585.063-1.19.128-1.779.2a6.061,6.061,0,0,1-.235.747c1-.083,2.024-.118,3.014-.152.944-.032,1.921-.065,2.878-.141a21.465,21.465,0,0,0,2.851-.4c.031-.006.086-.012.149-.019.205-.022.515-.056.582-.142a.023.023,0,0,1-.016.011c-.045,0-.049-.3-.05-.413,0-.024,0-.039,0-.046A6.774,6.774,0,0,0,144.548,163.01ZM116.44,149.441a4.023,4.023,0,0,0-1.242.282h0c-.159.054-.324.11-.483.155l-.023.067c3.616,3.582,8.48,5.149,13.184,6.666h0c.533.172,1.084.349,1.622.526a20.179,20.179,0,0,1,2.094.783,10.088,10.088,0,0,1,1.953,1.118,6.467,6.467,0,0,1,.817.722,5.051,5.051,0,0,1,.653.851,4.453,4.453,0,0,1,.447,1,4.7,4.7,0,0,1,.2,1.154c2.106-.162,4.185-.4,6.181-.7,1.51-.022,2.354-.329,2.506-.912.164-.627-.512-1.447-1.108-2.023a12.243,12.243,0,0,0-1.22-1.021,13.824,13.824,0,0,0-1.223-.809,28.132,28.132,0,0,0-2.773-1.517c-.96-.465-1.964-.907-2.935-1.335a42.974,42.974,0,0,1-5.882-2.956,15.883,15.883,0,0,1-2.535-1.985,12.742,12.742,0,0,1-1.093-1.207,12.069,12.069,0,0,1-.948-1.383,2.271,2.271,0,0,0-.356-.108,8.181,8.181,0,0,1-1.493,1.237,9.549,9.549,0,0,1-1.73.881,11.1,11.1,0,0,1-1.873.542,12.113,12.113,0,0,1-1.924.221A1.4,1.4,0,0,0,116.44,149.441Zm-18.68,1.745h0a5.539,5.539,0,0,0,1.627,1.049,4.621,4.621,0,0,0,1.749.341,6.072,6.072,0,0,0,2.335-.51c-1.048-.111-2.1-.24-3.12-.383C99.433,151.548,98.561,151.381,97.759,151.186ZM13.3,34.518h0c-.492,4.9-.839,9.853-1.153,14.5-.16,1.9-.279,3.835-.364,5.924-.075,1.861-.122,3.8-.142,5.928-.037,3.953.025,7.972.085,11.859v0c.041,2.661.084,5.413.094,8.118a37.845,37.845,0,0,1-.679,3.859c-.272,1.2-.6,2.43-1.015,3.771-.763,2.491-1.692,4.986-2.589,7.4h0c-.818,2.2-1.664,4.473-2.385,6.741-.388,1.221-.709,2.343-.983,3.431-.307,1.22-.546,2.365-.731,3.5-.254,1.266-.459,2.519-.609,3.723-.159,1.275-.263,2.54-.309,3.761.006.4-.015.824-.035,1.232a6.66,6.66,0,0,0,.337,3.177s.011-.015.022-.032a7.549,7.549,0,0,1,.628-.758h0c.144-.16.293-.326.42-.482s.267-.327.4-.488c1.54-1.9,3.034-3.9,4.48-5.827h0c1.277-1.7,2.6-3.467,3.944-5.16,1.511-1.9,2.9-3.508,4.235-4.919,2.565-2.408,5.357-4.67,8.056-6.857h0c2.753-2.231,5.6-4.537,8.207-7,1.4-1.325,2.627-2.589,3.741-3.862.6-.69,1.181-1.392,1.717-2.086.562-.728,1.1-1.472,1.59-2.213a12.384,12.384,0,0,1,1.5-1.867,16.053,16.053,0,0,1-2.4-1.565,17.4,17.4,0,0,1-1.788-1.648A24.22,24.22,0,0,1,36,74.839c-.993-1.279-1.9-2.663-2.781-4h0c-.408-.62-.829-1.262-1.251-1.881-.833-1.29-1.764-2.691-2.749-4.176-1.365-2.057-2.913-4.388-4.445-6.794-1.753-2.753-3.239-5.217-4.543-7.531-.76-1.349-1.472-2.674-2.117-3.938-.7-1.368-1.341-2.713-1.912-4-.611-1.374-1.159-2.724-1.63-4.014-.5-1.368-.927-2.71-1.271-3.989Zm87.444,52.373a.38.38,0,0,0-.285.133.324.324,0,0,0-.069.275c.755,4.076,1.786,8.16,2.782,12.109v0c.72,2.854,1.465,5.806,2.1,8.731a.278.278,0,0,0,.284.234.373.373,0,0,0,.284-.134.314.314,0,0,0,.06-.274c-.635-2.925-1.38-5.877-2.1-8.731v0c-1-3.949-2.027-8.033-2.782-12.109A.267.267,0,0,0,100.744,86.891ZM86.267,70.613c-.445,1.119-.9,2.255-1.344,3.353l-.007.016c-1.013,2.517-2.061,5.119-3.035,7.7a120.984,120.984,0,0,1,13.6,1.423c.736.1,1.5.213,2.236.316a15.289,15.289,0,0,1,3.426.734,18.315,18.315,0,0,1,3.149,1.416,28.858,28.858,0,0,1,5.549,4.208,40.652,40.652,0,0,0,3.417,2.771c.088.062.18.132.278.205l0,0a2.738,2.738,0,0,0,1.369.7.645.645,0,0,0,.414-.145,1.218,1.218,0,0,0,.338-.5c.831-2.068.624-4.319.423-6.5v-.008q-.016-.177-.032-.354c-.06-.428-.142-.857-.221-1.272-.029-.151-.059-.306-.087-.46a3.4,3.4,0,0,1-.519-1.037c-.055-.15-.112-.3-.176-.456a13.416,13.416,0,0,0-1.326-2.4,13.732,13.732,0,0,0-1.782-2.088,13.343,13.343,0,0,0-1.906-1.606,14.023,14.023,0,0,0-2.067-1.18,16.98,16.98,0,0,0-2.427-.9,24.485,24.485,0,0,0-2.548-.589c-1.731-.311-3.547-.485-5.3-.654-.611-.059-1.244-.119-1.864-.185a.533.533,0,0,1-.222.045.762.762,0,0,1-.152-.016,1.53,1.53,0,0,1-.237-.1,35.077,35.077,0,0,1-4.626-.782A17.25,17.25,0,0,1,86.267,70.613ZM73.587,82.464h0a12.219,12.219,0,0,0,2.636.845c1.027.241,2.071.434,2.766.553.28-.745.561-1.476.832-2.17l-.045-.009-.037-.007h.089c1.715-4.4,3.418-8.292,5.207-11.9-.118-.084-.252-.181-.394-.284-1.168-.847-3.122-2.264-4.468-2.264-.039,0-.077,0-.114,0-.533,1.421-1.174,2.828-1.794,4.189v0c-.417.915-.848,1.861-1.242,2.8a42.115,42.115,0,0,0-1.874,5.413v0c-.143.484-.291.984-.442,1.474-.022.081-.046.162-.069.24-.039.131-.08.267-.109.405a.861.861,0,0,1-.338.535.964.964,0,0,1-.565.171Zm-42.606-70.6a8.707,8.707,0,0,1-1.488.939,12.083,12.083,0,0,1-1.623.666,32.357,32.357,0,0,1-3.465.875A27.949,27.949,0,0,0,20.5,15.373a9.6,9.6,0,0,0-2.52,1.344,8.738,8.738,0,0,0-1.832,1.87,11.275,11.275,0,0,0-1.9,4.847,17.459,17.459,0,0,0-.215,2.741,22.337,22.337,0,0,0,.175,2.8,26.816,26.816,0,0,0,1.221,5.282c.4,1.428.865,2.885,1.388,4.332.5,1.378,1.063,2.791,1.679,4.2a89.458,89.458,0,0,0,4.06,8.078c1.328,2.36,2.869,4.9,4.711,7.757,1.64,2.546,3.356,5.1,5.016,7.568l0,0,.009.013c.9,1.334,1.825,2.714,2.726,4.071a24.915,24.915,0,0,0,3.707,4.932,19.128,19.128,0,0,0,2.29,2,16.478,16.478,0,0,0,2.59,1.568,15.1,15.1,0,0,0,4.061,1.3c1.2.216,2.439.391,3.773.536,1.189.129,2.431.23,3.8.309,2.538.147,5.127.194,7.632.239h0c2.644.048,5.378.1,8.054.265a2.524,2.524,0,0,1,.681-1.147A1.628,1.628,0,0,1,72.7,79.76a1.048,1.048,0,0,1,.29.041c.269-1.029.583-2.048.934-3.03.372-1.041.788-2.05,1.237-3A23.525,23.525,0,0,1,78.585,68.4a.9.9,0,0,1-.122.008h-.055a16.814,16.814,0,0,1-2.824-.462c-.273-.061-.555-.124-.832-.181-3.9-.809-7.4-1.54-10.715-2.235-.633-.133-1.292-.259-1.929-.381h0c-1.458-.28-2.966-.569-4.417-.976a.9.9,0,0,1-.29.046,1.6,1.6,0,0,1-1.04-.462,14.456,14.456,0,0,1-3.283-1.583,11.149,11.149,0,0,1-1.751-1.622,20.756,20.756,0,0,1-1.688-2.208c-.531-.79-1.077-1.694-1.624-2.686-.507-.92-1.032-1.947-1.56-3.054-2.037-4.268-3.921-9.282-5.584-13.706h0c-1.333-3.548-2.593-6.9-3.712-9.277,3.551,6.175,6.9,13.278,10.131,20.147l0,0c.572,1.214,1.163,2.469,1.738,3.682a26.83,26.83,0,0,0,2.419,4.387,11.809,11.809,0,0,0,1.619,1.844,9.813,9.813,0,0,0,.968.78,9.413,9.413,0,0,0,1.1.665c-.907-3.231-1.818-6.511-2.7-9.683v0c-1.672-6.02-3.4-12.246-5.162-18.35-.252-.805-.468-1.523-.66-2.195-.245-.864-.445-1.637-.613-2.364-.129-.56-.2-1.144-.274-1.708a13.424,13.424,0,0,0-.405-2.206v-.006l0-.01a1.789,1.789,0,0,1-.594-.557,5.688,5.688,0,0,1-.408-.727v0c-.033-.066-.067-.134-.1-.2-1.048-1.951-2.06-3.89-2.912-5.53-.335-.67-.692-1.347-1.037-2v0a38.352,38.352,0,0,1-2.527-5.472c.026-.216.1-.326.21-.326a.4.4,0,0,1,.213.088,5.2,5.2,0,0,1,.452-1.527l.042-.1a3.2,3.2,0,0,0-.87-.4,3.312,3.312,0,0,0-.923-.129,3.93,3.93,0,0,0-1.924.527,4.6,4.6,0,0,0-.73.568,4.7,4.7,0,0,0-.578.67,6.052,6.052,0,0,0-.786,1.576,17.942,17.942,0,0,0-.688,3.613c-.07.579-.136,1.125-.226,1.652-.1.729-.2,1.505-.255,2.28a11.467,11.467,0,0,0,.053,2.289,1.14,1.14,0,0,1-.023.453,1.1,1.1,0,0,0,.267.033,2.475,2.475,0,0,0,1.351-.595,14.694,14.694,0,0,1,2.454-1.754,6.923,6.923,0,0,1,1.261-.544,4.27,4.27,0,0,1,1.251-.2,3.294,3.294,0,0,1,.9.122,3.347,3.347,0,0,1,.869.39,4.328,4.328,0,0,1,.832.694,6.6,6.6,0,0,1,.786,1.033l.095.13c.553.755,1.125,1.536,1.648,2.327a19.482,19.482,0,0,1,1.411,2.472.136.136,0,0,1,0,.134.133.133,0,0,1-.111.06.15.15,0,0,1-.093-.034,19.6,19.6,0,0,1-2.1-1.946c-.655-.693-1.288-1.43-1.9-2.144h0l-.024-.028-.323-.376a4.628,4.628,0,0,0-.854-.823,1.884,1.884,0,0,0-1.1-.347h-.08a3.193,3.193,0,0,0-.886.159,4.1,4.1,0,0,0-.8.364,11.16,11.16,0,0,0-1.441,1.067,11.014,11.014,0,0,1-1.45,1.071,4.022,4.022,0,0,1-.8.36,3.138,3.138,0,0,1-.89.15c-.057,0-.115.007-.172.007a2.175,2.175,0,0,1-.967-.231,1.9,1.9,0,0,1-.714-.6,1.3,1.3,0,0,1-.224-.532,1.143,1.143,0,0,1,.057-.588c0-.016-.006-.033-.008-.048a13.593,13.593,0,0,1-.027-2.823c.076-.917.211-1.814.366-2.807l.022-.144A31.1,31.1,0,0,1,30.981,11.861Zm75.455,55.23a44.462,44.462,0,0,0,1.437,4.409,9.378,9.378,0,0,0,.505,1.239h0A6.537,6.537,0,0,1,109,74.5a16.242,16.242,0,0,1,3.259,2.21,18.772,18.772,0,0,1,2.686,2.892c.017-.306.039-.617.06-.918a14.981,14.981,0,0,0-.09-4.115,9.2,9.2,0,0,0-3.146-4.9,11.994,11.994,0,0,0-2.52-1.62A12.286,12.286,0,0,0,106.435,67.091ZM79.59,67.34a1.112,1.112,0,0,0-.332.226l-.005,0c0,.035,0,.07,0,.11C79.366,67.559,79.48,67.445,79.59,67.34ZM72.946,56.666c-.221,0-.451.006-.683.011-.717.026-1.447.076-2.152.124-.483.033-.982.067-1.472.093-.924.049-1.864.1-2.773.151l-.028,0-.457.025-1.15.084-1.6.114-.026,0c-1.041.074-2.116.151-3.175.224-.532.037-1.072.072-1.595.105l-.043,0-.707.046c-.163.011-.333.028-.5.046h0c-.254.026-.516.054-.772.058l.31,1.112.031.112.218.782a9.373,9.373,0,0,1,.259.955,7.974,7.974,0,0,0,.342,1.184,30.522,30.522,0,0,0,3.305.858c.392.084.8.169,1.209.254A25.919,25.919,0,0,1,65,60.421,31.069,31.069,0,0,1,68.871,58.4a31.529,31.529,0,0,1,4.217-1.467C73.044,56.858,73,56.773,72.946,56.666Zm8.831-1.045a12.882,12.882,0,0,1,4.339.631,5.015,5.015,0,0,1,1.748,1.584,27.809,27.809,0,0,0,1.481,4.193.26.26,0,0,0,.242.17.368.368,0,0,0,.3-.172.333.333,0,0,0,.024-.327A26,26,0,0,1,88.7,58.411a16.93,16.93,0,0,1,2.6-1.345.668.668,0,0,1-.1-.083,2.976,2.976,0,0,1-.6-.91,9.052,9.052,0,0,1-.364-1.037c-.079-.259-.161-.528-.259-.783-1.013-3.046-2.065-6-2.96-8.48-1.111-2.911-2.208-5.887-3.27-8.765-1.965-5.325-4-10.832-6.19-16.152-2.1-3.685-6.5-4.12-10.384-4.5L66.6,16.3a31.159,31.159,0,0,1,1.547,3.584c.448,1.221.852,2.483,1.243,3.7h0c.236.737.48,1.5.732,2.245.032.086.064.18.1.289a1.042,1.042,0,0,1-.083.829,1.221,1.221,0,0,1-.732.607,1.174,1.174,0,0,1-.31.043,1.082,1.082,0,0,1-.681-.246,1.527,1.527,0,0,1-.445-.612,2.67,2.67,0,0,0-1.325-1.4,3.792,3.792,0,0,0-1.44-.228,2.518,2.518,0,0,1-1.1-.178c.621,2.262,1.367,4.941,2.185,7.667.84,2.8,1.647,5.279,2.468,7.584.7,1.987,1.449,4,2.3,6.154.761,1.918,1.585,3.9,2.518,6.07.282.651.588,1.35.964,2.2.066.148.14.3.219.459.108.218.219.443.312.673a.714.714,0,0,1,.124.342,2.847,2.847,0,0,1,.075.309,35.691,35.691,0,0,1,3.879-.63,12.534,12.534,0,0,0-.864-2.512,15.361,15.361,0,0,1-.766-2.074c-.416-1.319-.759-2.481-1.05-3.553-.352-1.3-.634-2.484-.862-3.628a32.345,32.345,0,0,1-.694-7.364h.005a.1.1,0,0,1,.058.018c-.006-.043-.013-.089-.021-.136a.108.108,0,0,1,.03,0c.068,0,.142.067.22.2a2.9,2.9,0,0,1,.211.492c.135.39.255.868.343,1.217.046.183.083.328.109.411.337,1.246.607,2.53.869,3.772h0c.237,1.127.483,2.293.777,3.427a65.152,65.152,0,0,0,2.3,7.1c.06.153.116.309.175.474h0a4.765,4.765,0,0,0,1,1.873.713.713,0,0,1,.119.155C81.335,55.625,81.56,55.622,81.777,55.622ZM70.5,50.863c-1.69.024-3.508.1-5.721.25-.823.077-1.647.168-2.449.27l-1.075.139c-1.013.131-2.06.267-3.094.38-.763.083-1.446.146-2.088.192-.359.026-.711.046-1.046.062-.17.008-.346.015-.523.02h-.017l-.031,0a.8.8,0,0,1-.159.1l.142.51.01.036,0,.011c.231.829.47,1.687.707,2.529l.331,1.19a7.081,7.081,0,0,1,1.094-.089h0c.168,0,.342-.01.509-.021l.663-.044c.551-.036,1.12-.074,1.682-.109,1.029-.063,2.076-.125,3.089-.185h.01l.127-.008,1.463-.087c.651-.039,1.314-.084,1.955-.128h0c1.866-.127,3.8-.258,5.693-.258.252,0,.5,0,.745.007-.051-.134-.112-.291-.174-.433C71.669,53.632,71.064,52.213,70.5,50.863Zm-2.735-6.754c-1.272.117-2.565.229-3.816.338h-.007c-1.387.12-2.821.245-4.23.376-.776.072-1.6.151-2.533.242-.766.093-1.545.192-2.3.287h-.012c-.737.093-1.5.19-2.255.282-.017.149-.029.3-.036.455.541,1.957.957,3.46,1.349,4.872a4.015,4.015,0,0,1,.789-.065l.205,0c1.662-.062,3.289-.226,5.22-.453.558-.066,1.13-.138,1.682-.207a53.814,53.814,0,0,1,6.66-.559c.53,0,1.048.016,1.54.049C69.181,47.7,68.442,45.867,67.762,44.109Zm-15.367.067a.479.479,0,0,1,.274.079c.036.025.067.048.1.07a2.858,2.858,0,0,0,.441-.052c.1-.016.187-.032.269-.039l1.075-.1,1.935-.17c1.328-.115,2.667-.226,3.979-.332l.109-.009h0c2.231-.179,4.539-.365,6.81-.5-.661-1.736-1.247-3.348-1.793-4.928-2.726.015-5.41.2-8.149.4-.557.041-1.144.088-1.795.143l-1.625.213c-.689.091-1.394.186-2.1.282l-.951.13-.254.035c.475,1.705.945,3.407,1.349,4.868A.633.633,0,0,1,52.395,44.176ZM48.654,32.048c.55,1.926,1.126,3.97,1.813,6.435,1.746-.232,3.44-.451,5.036-.65,2.013-.251,3.814-.463,5.505-.647l.157-.017.036,0h0A20.132,20.132,0,0,1,63.387,37a6.585,6.585,0,0,1,1.881.243c-.6-1.774-1.119-3.425-1.593-5.048a4.847,4.847,0,0,1-1.336.552c-.5.141-1.024.246-1.485.338h0c-.317.064-.591.119-.8.174a23.168,23.168,0,0,1-3.844.326,20.123,20.123,0,0,1-3.876-.366A16.184,16.184,0,0,1,48.654,32.048ZM60.792,13.435a.149.149,0,0,1,.151.112c.283.973.576,2,.871,3.058l.017.034.015.031a1.072,1.072,0,0,1,.111.444c.465,1.666.925,3.355,1.371,4.99l.024.088.347,1.274a1.722,1.722,0,0,1,1.665-.8,5.476,5.476,0,0,1,1.574.26c-.415-1.393-.851-2.708-1.3-3.909a37.248,37.248,0,0,0-1.664-3.877c-1.4-2.765-2.822-4.312-4.218-4.6a19.423,19.423,0,0,0,.812,3.265c.016.047.036.1.057.158v-.056c0-.105,0-.214,0-.321a.143.143,0,0,1,.039-.106A.168.168,0,0,1,60.792,13.435Z" transform="translate(0 2.282)"/>
          </g>
          <g id="head_Bangs" data-name="head/Bangs" transform="translate(19.124)">
            <path id="_Skin-2" data-name="âœ‹ Skin" d="M49.073,40.078c-.431-.637-1.468-5.259-2.13-5.97.05-2.731.8-12.185-1.351-16.434.454-.459,1.659-4.409,1.351-5.9,1.016-3.127-5.51-8.095-7.993-9.437C27.408-3.855,10.683,2.977,5.434,14.442c-3.154,6.9-3.212,14.635-3.569,22.065-.042,1.59-.188,3.193-.187,4.781.228,1.4,1.335,2.817.5,3.978-.927.641-2.8,2.2-1.966,3.088.489.407,1.269.171,1.8.562.27.151.438.482.754.533,2.884-.11,4.92-.119,7.813-.236,1.267-.041,3.2.494,4.649-.572,5.078,2.825,2.954-1.273,3.981-4.191,3.127,1.057,9.357,4.429,12.69,4.538,2.709.335,5.242-1.243,7.9-.884,3.308,1.229,7.185,1.5,10.216-.577.756-.545,1.6.086,2.551-.5C54.42,46.139,50.008,41.061,49.073,40.078Z" transform="translate(2.39 0)" fill="#d08b5b"/>
            <path id="_Hair" data-name="ðŸ’ˆ Hair" d="M17.759,49.59a6.041,6.041,0,0,1-2.534-.95,3.251,3.251,0,0,1-1.184.539,5.325,5.325,0,0,1-1.256.132c-.361,0-.7-.023-1.085-.05l-.054,0c-.328-.024-.638-.046-.92-.046l-.15,0c-1.51.061-2.812.093-4.071.125-1.161.029-2.362.059-3.742.111a.908.908,0,0,1-.465-.3,1.463,1.463,0,0,0-.289-.236,1.855,1.855,0,0,0-.9-.273,1.659,1.659,0,0,1-.9-.289.741.741,0,0,1-.2-.61,2.594,2.594,0,0,1,.842-1.374,9.747,9.747,0,0,1,1.327-1.1c.571-.79.245-1.689-.1-2.641a7.672,7.672,0,0,1-.4-1.336c0-.933.05-1.886.1-2.807.035-.648.07-1.317.088-1.974l.031-.669c.021-.449.041-.907.06-1.35v-.005c.149-3.362.3-6.839.775-10.215a41.94,41.94,0,0,1,.99-5,30.129,30.129,0,0,1,1.711-4.825A21.7,21.7,0,0,1,9.425,8.6a26.828,26.828,0,0,1,5.717-4.566A28.939,28.939,0,0,1,21.95,1.062,26.107,26.107,0,0,1,29.216,0a22.037,22.037,0,0,1,5.02.565A19.281,19.281,0,0,1,38.95,2.334a21.773,21.773,0,0,1,2.439,1.6,27.185,27.185,0,0,1,2.869,2.448c1.53,1.518,3.237,3.685,2.684,5.388a7.138,7.138,0,0,1-.177,2.425,18.041,18.041,0,0,1-.74,2.6,3.971,3.971,0,0,1-.9.483,7.2,7.2,0,0,1-1.193.345,16.634,16.634,0,0,1-3.277.276,49.289,49.289,0,0,1-6.668-.553c-2.607-.367-5.651-.925-9.047-1.659l-.447-.1L20.52,17.952l-1.634,6.139a12.532,12.532,0,0,0-2.659,3.975,5.21,5.21,0,0,0-1-.8,5.057,5.057,0,0,0-2.651-.8c-.143,0-.287.007-.43.02a10.434,10.434,0,0,0-3.5,2.205,2.756,2.756,0,0,0-.562,1.9A13.518,13.518,0,0,0,8.6,33.94l.044.168,3.5,1.09H13.77l4.464,5.456.652,5.612c-.019.315-.026.623-.033.922a6.559,6.559,0,0,1-.17,1.7A.887.887,0,0,1,17.759,49.59Zm27.009-.532a13.02,13.02,0,0,1-2.523-.258,15.966,15.966,0,0,1-2.444-.7,6.172,6.172,0,0,0-.822-.054c-.109,0-.222,0-.335.008l-.158-.495,3.62-3.114,3.863-7.778,1.017-3.851-.022.579c-.011.3-.018.526-.021.708a14.99,14.99,0,0,1,1.333,3.623,14.534,14.534,0,0,0,.8,2.347l.093.1a30.559,30.559,0,0,1,2.382,2.944,12.663,12.663,0,0,1,1.108,1.849A2.654,2.654,0,0,1,53,46.465a.745.745,0,0,1-.43.559,1.934,1.934,0,0,1-1.073.274c-.1,0-.2,0-.3-.008h0c-.1,0-.193-.007-.288-.007a1.422,1.422,0,0,0-.887.243A8.5,8.5,0,0,1,47.49,48.7,10.114,10.114,0,0,1,44.768,49.059Z" transform="translate(2.39 0)" fill="#d6b370"/>
            <path id="_Ink-2" data-name="ðŸ– Ink" d="M46.607,49.493a6.811,6.811,0,0,1-2.113-.37,7.276,7.276,0,0,1-1.861-.911,5.341,5.341,0,0,1-.748-.6,10.267,10.267,0,0,1-2.751,1.037,13.422,13.422,0,0,1-2.955.316,16.58,16.58,0,0,1-2.924-.267,12.949,12.949,0,0,1-2.181-.583,9.882,9.882,0,0,1-2.016-1.009,7.479,7.479,0,0,1-1.58-1.376,7.656,7.656,0,0,1-1.13-1.762.132.132,0,0,1,.011-.127.126.126,0,0,1,.1-.063.1.1,0,0,1,.079.041c1.667,2.024,4.677,3.316,8.257,3.544.392.025.777.038,1.143.038a11.844,11.844,0,0,0,3.558-.492,8.562,8.562,0,0,0,3.7-2.357,21.013,21.013,0,0,0,4.234-8.077,35.78,35.78,0,0,0,1.538-9.644A26.426,26.426,0,0,0,48.7,21.89c-.136-.856-.337-1.711-.531-2.538h0c-.173-.737-.352-1.5-.484-2.258a.238.238,0,0,1,.055-.2.244.244,0,0,1,.182-.09.193.193,0,0,1,.173.114,12.635,12.635,0,0,1,1.022,2.765c.245.956.414,1.918.58,2.9a36.436,36.436,0,0,1,.555,5.852A26.311,26.311,0,0,1,49.862,33l.031.108c.059.2.118.4.176.593l.089.3c.069.228.137.457.2.679v0c.1.337.2.686.31,1.028.355,1.14.751,2.355,1.235,3.52a18.791,18.791,0,0,0,1.7,3.207,11.065,11.065,0,0,0,.877,1.1A7,7,0,0,1,55.742,45.3a.655.655,0,0,1-.053.6.46.46,0,0,1-.391.216.529.529,0,0,1-.072,0,.187.187,0,0,1-.131.065c-.1.008-.195.013-.3.013-.242,0-.486-.023-.7-.043a.148.148,0,0,1,0-.3c.172-.016.3-.027.426-.034a4.65,4.65,0,0,1-1.269-1.183A14.512,14.512,0,0,1,52.3,43.2,19.015,19.015,0,0,1,50.6,39.409,29.488,29.488,0,0,1,49.576,35.3c-.028-.151-.055-.308-.084-.482a31.983,31.983,0,0,1-1.237,4.035l-.069.181c-.313.812-.621,1.535-.942,2.208a20.91,20.91,0,0,1-1.152,2.119,15.2,15.2,0,0,1-1.42,1.931,11.843,11.843,0,0,1-1.746,1.644c-.1.078-.216.159-.356.255l.146.084c.161.092.3.166.429.228a8.466,8.466,0,0,0,1.642.558,12.041,12.041,0,0,0,2.656.217h0c.289,0,.589,0,.881.014a.453.453,0,0,1,.41.369.35.35,0,0,1-.2.409,4.282,4.282,0,0,1-.953.322A4.722,4.722,0,0,1,46.607,49.493Zm-41.845,0a.666.666,0,0,1-.634-.457l-.008-.024c-.1-.335-.5-.405-.822-.405a2.99,2.99,0,0,0-.56.058l-.116.024-.217.046-.008,0a6.226,6.226,0,0,1-1.289.184,2.562,2.562,0,0,1-.676-.086.558.558,0,0,1-.3-.2A.663.663,0,0,1,0,48.3a.6.6,0,0,1,.05-.32.523.523,0,0,1,.235-.242A22.273,22.273,0,0,0,4.058,45.09l.187-.152a12.262,12.262,0,0,1-.5-1.659h0c-.04-.159-.081-.324-.122-.482a16.658,16.658,0,0,1-.4-2.719c-.009-.1-.019-.21-.029-.317A56.9,56.9,0,0,1,2.975,34c.016-1.656.1-3.289.254-4.853a47.878,47.878,0,0,1,.709-4.8,41.4,41.4,0,0,1,1.228-4.684,36.694,36.694,0,0,1,1.811-4.509A29.361,29.361,0,0,1,11.773,8.1a22.568,22.568,0,0,1,3.108-2.818,24.306,24.306,0,0,1,3.566-2.21.134.134,0,0,1,.061-.016.109.109,0,0,1,.1.077.124.124,0,0,1-.046.141,31.164,31.164,0,0,0-6.371,6.732A38.416,38.416,0,0,0,5.9,25.513a52.83,52.83,0,0,0-.658,9.926c.021,1.247.088,2.481.182,3.95l.095,1.458a19.294,19.294,0,0,1,.052,2.036l-.008.158c-.014.244-.016.493-.018.733A6.8,6.8,0,0,1,5.4,45.412a.479.479,0,0,1-.866.113c-.034-.059-.07-.125-.113-.209a9.724,9.724,0,0,1-1.775,2.089,3.44,3.44,0,0,1,.73-.089,2.242,2.242,0,0,1,.266.015A2.18,2.18,0,0,1,5,47.967a2.585,2.585,0,0,1,1.086-.26h0a.408.408,0,0,1,.354.22.372.372,0,0,1-.008.385A3.336,3.336,0,0,1,5.095,49.4.7.7,0,0,1,4.763,49.49ZM21.176,49a.419.419,0,0,1-.264-.084.406.406,0,0,1-.144-.275c-.1-.713-.174-1.437-.247-2.137h0a26.327,26.327,0,0,0-.891-5.163,22.91,22.91,0,0,0-3.45-6.533.106.106,0,0,1-.007-.114.144.144,0,0,1,.122-.078.107.107,0,0,1,.06.018A11.5,11.5,0,0,1,19.2,37.322a15.2,15.2,0,0,1,1.922,3.426,14.8,14.8,0,0,1,1.044,3.905,8.373,8.373,0,0,1-.425,3.983A.621.621,0,0,1,21.176,49Zm-7.894-.841a.636.636,0,0,1-.461-.183.561.561,0,0,1-.148-.425,2.071,2.071,0,0,1,.31-.925h0c.039-.075.08-.152.12-.233.133-.27.249-.554.345-.8l.159-.4a24.9,24.9,0,0,0,.85-2.415.04.04,0,0,1,.04-.029.042.042,0,0,1,.031.012.035.035,0,0,1,.009.027c-.011.178-.022.359-.033.534-.041.681-.083,1.384-.17,2.069-.033.26-.073.523-.112.777h0c-.024.155-.048.315-.071.474-.013.09-.023.182-.032.271a1.983,1.983,0,0,1-.268.956A.682.682,0,0,1,13.281,48.155ZM8.9,48.028a.536.536,0,0,1-.508-.622,5,5,0,0,1,.425-1.173c.093-.2.19-.415.266-.618.177-.477.347-.995.535-1.628.323-1.088.611-2.267.856-3.506a.054.054,0,0,1,.056-.044.069.069,0,0,1,.049.02.053.053,0,0,1,.015.04,28.587,28.587,0,0,1-.414,3.645c-.087.483-.193,1.005-.335,1.643l-.053.234c-.028.124-.054.251-.081.385a4.691,4.691,0,0,1-.425,1.379A.44.44,0,0,1,8.9,48.028Zm8.733-.681a.69.69,0,0,1-.647-.587,2.945,2.945,0,0,1,.258-1.3c.038-.106.078-.216.112-.323.027-.084.053-.169.078-.252a3.774,3.774,0,0,1,.273-.725,2.619,2.619,0,0,0-.295.075l-.115.033-.014,0a.043.043,0,0,1-.042-.037.047.047,0,0,1,.031-.053l.114-.039a1.272,1.272,0,0,0,.506-.256l.026-.027a.157.157,0,0,1,.117-.054.214.214,0,0,1,.184.134,2.7,2.7,0,0,1,.1,1.205c-.007.112-.014.227-.017.338l0,.11q0,.047,0,.093v.01a3.062,3.062,0,0,1-.233,1.361A.477.477,0,0,1,17.63,47.346Zm33.251-.193-.042,0a5.142,5.142,0,0,1-3.321-1.58.084.084,0,0,1-.018-.093.089.089,0,0,1,.081-.052.1.1,0,0,1,.041.009,11.191,11.191,0,0,0,1.567.606,8.422,8.422,0,0,0,1.649.315.419.419,0,0,1,.38.453A.334.334,0,0,1,50.881,47.153ZM13.7,36.087a3.237,3.237,0,0,1-1.724-.5,4.459,4.459,0,0,1-1.348-1.319,5.067,5.067,0,0,1-.716-1.706,5.991,5.991,0,0,1,.37-3.688,4.754,4.754,0,0,1,.661-1.063,5.376,5.376,0,0,1,.938-.9A4.621,4.621,0,0,1,13,26.278a3.347,3.347,0,0,1,1.2-.235,2.654,2.654,0,0,1,1.006.194,2.888,2.888,0,0,1,.936.629.057.057,0,0,1,.01.063.051.051,0,0,1-.046.035.048.048,0,0,1-.019,0,2.414,2.414,0,0,0-.929-.179A3.819,3.819,0,0,0,12.5,28.024,4.505,4.505,0,0,0,11.338,30.7a3.786,3.786,0,0,0,.819,2.806,2.111,2.111,0,0,0,1.367.835c.032,0,.064,0,.1,0a2.157,2.157,0,0,0,.848-.24,3.056,3.056,0,0,1,.6-.214.737.737,0,0,1,.145-.015.562.562,0,0,1,.4.159.663.663,0,0,1,.187.416,1.256,1.256,0,0,1-.448,1.062,2.25,2.25,0,0,1-1.071.521A3.168,3.168,0,0,1,13.7,36.087Zm.877-3.764a.406.406,0,0,1-.3-.169.739.739,0,0,1-.081-.712,2.142,2.142,0,0,1,.38-.653c.038-.047.08-.093.123-.139a2.87,2.87,0,0,0-.355-.229,2.135,2.135,0,0,0-.978-.253,1.136,1.136,0,0,0-1.085.624.057.057,0,0,1-.052.033.075.075,0,0,1-.049-.018.063.063,0,0,1-.023-.048,1.369,1.369,0,0,1,.606-1.123,2.52,2.52,0,0,1,1.253-.448c.062-.005.125-.008.189-.008a4.015,4.015,0,0,1,1.62.434l.106.049.227.1c.136.061.276.124.411.191a.365.365,0,0,1,.02-.3,12.208,12.208,0,0,1,1.531-2.143c.361-.436.734-.886,1.053-1.351a21.072,21.072,0,0,0,2.04-3.736,22.663,22.663,0,0,0,1.244-3.92l-.029,0a.178.178,0,0,1-.127-.057.149.149,0,0,1-.043-.112.628.628,0,0,1,.344-.556,20.711,20.711,0,0,0,.341-3.826.069.069,0,0,1,.072-.074.079.079,0,0,1,.081.074,21.335,21.335,0,0,1,.024,3.455c.209-.192.425-.383.634-.568.336-.3.683-.6,1.006-.921.808-.793,1.577-1.6,2.284-2.388a28.91,28.91,0,0,0,2.106-2.629l.339-.483a14.069,14.069,0,0,1,1.713-2.1.549.549,0,0,1,.385-.157.6.6,0,0,1,.471.232.535.535,0,0,1,.089.475,6.63,6.63,0,0,1-.71,1.643,12.89,12.89,0,0,1-1.033,1.469,28.212,28.212,0,0,1-2.319,2.591A21.916,21.916,0,0,1,25.436,16.8l-.283.2a13.358,13.358,0,0,1-2.114,1.28,20.058,20.058,0,0,1-1.063,4.539,21.864,21.864,0,0,1-1.954,4.043l-.113.182a15.262,15.262,0,0,1-1.226,1.748,5.338,5.338,0,0,1-1.6,1.353.4.4,0,0,1-.111.038,1.642,1.642,0,0,1,.647.747.492.492,0,0,1,0,.394.864.864,0,0,1-.466.433,1.071,1.071,0,0,1-.395.076,2.59,2.59,0,0,1-1.453-.71c-.027.061-.049.115-.067.166-.028.08-.052.161-.076.24a1.261,1.261,0,0,1-.425.743A.252.252,0,0,1,14.579,32.324ZM48.7,15.959a.586.586,0,0,1-.434-.228.623.623,0,0,1-.145-.5A11.354,11.354,0,0,0,46.1,6.8C44.059,3.763,40.443,1.777,35.353.894a29.977,29.977,0,0,0-5.1-.443c-.336,0-.676.006-1.011.018a15.573,15.573,0,0,0-4.645.725.054.054,0,0,1-.018,0,.045.045,0,0,1-.043-.04.054.054,0,0,1,.033-.061A14.281,14.281,0,0,1,27.334.373,27.616,27.616,0,0,1,30.183.067C30.9.023,31.617,0,32.316,0a28.468,28.468,0,0,1,5.732.555,22.468,22.468,0,0,1,2.771.755,19.2,19.2,0,0,1,2.629,1.127,12.092,12.092,0,0,1,2.935,2.151A13.282,13.282,0,0,1,48.577,7.5a13.678,13.678,0,0,1,.939,2.034,10.888,10.888,0,0,1,.55,2.168,5.8,5.8,0,0,1-.059,2.151,4.7,4.7,0,0,1-.945,1.918A.454.454,0,0,1,48.7,15.959Zm-18.059-.527a.123.123,0,0,1-.111-.073.092.092,0,0,1,.028-.1,25.277,25.277,0,0,0,3.532-4,19.369,19.369,0,0,0,1.331-2.267c.076-.148.151-.309.23-.479h0a3.818,3.818,0,0,1,1.159-1.67.359.359,0,0,1,.195-.058.435.435,0,0,1,.4.3c.284.849-.33,1.983-.7,2.66a15.181,15.181,0,0,1-1.6,2.3A12.278,12.278,0,0,1,33.1,13.985a11.832,11.832,0,0,1-2.4,1.437A.114.114,0,0,1,30.645,15.432Zm10.289-.054a.059.059,0,0,1-.052-.035.054.054,0,0,1,.011-.06,12.893,12.893,0,0,0,2.28-3.505,16.148,16.148,0,0,0,.833-2.69c.1-.416.208-.846.33-1.27a.452.452,0,0,1,.186-.257.53.53,0,0,1,.289-.084.5.5,0,0,1,.367.148.418.418,0,0,1,.108.321,9.2,9.2,0,0,1-1.5,4.087,14.234,14.234,0,0,1-2.813,3.329A.058.058,0,0,1,40.934,15.378Zm-4.826-.09a.051.051,0,0,1-.046-.031.04.04,0,0,1,.012-.045A13.428,13.428,0,0,0,38.729,11.7a13.273,13.273,0,0,0,.887-2.09c.1-.308.177-.627.251-.936a10.5,10.5,0,0,1,.3-1.089.449.449,0,0,1,.19-.232.539.539,0,0,1,.279-.078.432.432,0,0,1,.321.128.383.383,0,0,1,.09.3,5.545,5.545,0,0,1-.221,1.105,8.537,8.537,0,0,1-.421,1.095,15.416,15.416,0,0,1-1.142,2.009,14.348,14.348,0,0,1-3.128,3.363A.049.049,0,0,1,36.108,15.289Z" transform="translate(0 0.217)"/>
          </g>
          <path id="_Ink-3" data-name="ðŸ– Ink" d="M11.739,20.842a4.139,4.139,0,0,1-1.57-.313,4.434,4.434,0,0,1-1.025-.589A4.364,4.364,0,0,1,8.31,19.1a.862.862,0,0,1-.174-.667.962.962,0,0,1,.374-.6.922.922,0,0,1,.549-.191.8.8,0,0,1,.123.009.848.848,0,0,1,.567.375l.034.046a2.929,2.929,0,0,0,1.073.9,2.436,2.436,0,0,0,1.064.248,2.358,2.358,0,0,0,.264-.015,3.538,3.538,0,0,0,2.164-1.24c.071-.073.146-.151.244-.255a.386.386,0,0,1,.2-.156.415.415,0,0,1,.132-.021.448.448,0,0,1,.367.192.409.409,0,0,1,.069.269,2.773,2.773,0,0,1-.921,1.764,4.033,4.033,0,0,1-.95.662,3.956,3.956,0,0,1-1.054.362A3.884,3.884,0,0,1,11.739,20.842Zm1.1-6.257h0a3.793,3.793,0,0,1-1.353-.273,6.832,6.832,0,0,1-1.591-.9.611.611,0,0,1-.222-.353.731.731,0,0,1,.031-.4.9.9,0,0,1,.268-.387.652.652,0,0,1,.417-.163.592.592,0,0,1,.323.1l.108.083h0a4.11,4.11,0,0,0,2.189,1.073,1.307,1.307,0,0,0,.974-.432,1.44,1.44,0,0,0,.273-1.16A3.159,3.159,0,0,0,12.8,10.036a.273.273,0,0,1-.074-.314.406.406,0,0,1,.4-.281.553.553,0,0,1,.093.008,2.951,2.951,0,0,1,1.038.375,2.354,2.354,0,0,1,.7.643,2.556,2.556,0,0,1,.446,1.708,2.727,2.727,0,0,1-.743,1.667A2.458,2.458,0,0,1,12.844,14.585Zm-8.8-6.11a.887.887,0,0,1-.576-.226.9.9,0,0,1-.3-.58,6.53,6.53,0,0,1,.035-1.7c.021-.165.042-.336.057-.52a1.018,1.018,0,0,1,.386-.728,1.189,1.189,0,0,1,.731-.257.9.9,0,0,1,.553.174.82.82,0,0,1,.305.543,4.562,4.562,0,0,1-.476,2.812A.787.787,0,0,1,4.042,8.475Zm12.919-.386a.776.776,0,0,1-.608-.261,2.62,2.62,0,0,1-.561-1.389,1.609,1.609,0,0,1,.439-1.382.911.911,0,0,1,.07-.107.994.994,0,0,1,.765-.44.829.829,0,0,1,.232.034,1.119,1.119,0,0,1,.747.652,2.306,2.306,0,0,1,.092,1.261,4.222,4.222,0,0,1-.382,1.19.772.772,0,0,1-.331.326A1,1,0,0,1,16.962,8.089ZM.143,4.038a.141.141,0,0,1-.118-.072.157.157,0,0,1-.009-.154,5.36,5.36,0,0,1,1.2-1.521,7.43,7.43,0,0,1,1.608-1.1A6.917,6.917,0,0,1,4.736.525l.2-.036A4.97,4.97,0,0,1,5.774.4,1.288,1.288,0,0,1,6.8.782a.874.874,0,0,1,.207.621.569.569,0,0,1-.207.406,1.585,1.585,0,0,1-1.086.319c-.086,0-.174,0-.26,0h0c-.082,0-.176,0-.268,0s-.161,0-.233.006A7.344,7.344,0,0,0,3.336,2.4,10.986,10.986,0,0,0,.218,4.013.134.134,0,0,1,.143,4.038Zm19.671-.823h0l-.086-.022a4.866,4.866,0,0,1-.943-.368l-.306-.151a8.507,8.507,0,0,0-1.094-.466,12.908,12.908,0,0,0-2.492-.55,1.018,1.018,0,0,1-.5-.19.749.749,0,0,1-.28-.426A.762.762,0,0,1,14.2.4a.813.813,0,0,1,.395-.34A.887.887,0,0,1,14.931,0a.991.991,0,0,1,.194.019l.156.032a11.151,11.151,0,0,1,2.691.874,5.441,5.441,0,0,1,1.184.778,3.455,3.455,0,0,1,.837,1.081c.029.226,0,.282-.028.32l-.009.011-.008.01a.216.216,0,0,1-.134.089Z" transform="translate(44.659 21.732)"/>
        </g>
        <circle id="Ellipse_1" data-name="Ellipse 1" cx="3" cy="3" r="3" transform="translate(154 157)" fill="#fff"/>
        <circle id="Ellipse_2" data-name="Ellipse 2" cx="6.5" cy="6.5" r="6.5" transform="translate(160 141)" fill="#fff"/>
        <rect id="Rectangle_3" data-name="Rectangle 3" width="160" height="75" rx="22" transform="translate(174 66)" fill="#fff"/>
        <text id="I_want_to_learn_Mechanical_Engineering" data-name="I want to learn Mechanical Engineering" transform="translate(191 81)" font-size="11" font-family="OpenSans-Regular, Open Sans"><tspan x="26.606" y="12">I want to learn </tspan><tspan x="2.721" y="27">Mechanical Engineering</tspan></text>
      </g>
    </g>
    <g id="Group_11" data-name="Group 11" transform="translate(1 33)">
      <g id="Group_10" data-name="Group 10" transform="translate(18 13)">
        <circle id="Ellipse_4" data-name="Ellipse 4" cx="3" cy="3" r="3" transform="translate(165 513)" fill="#fff"/>
        <circle id="Ellipse_3" data-name="Ellipse 3" cx="6.5" cy="6.5" r="6.5" transform="translate(152 497)" fill="#fff"/>
        <rect id="Rectangle_4" data-name="Rectangle 4" width="127" height="60" rx="22" transform="translate(32 441)" fill="#fff"/>
        <text id="Visit_intromech.com" data-name="Visit intromech.com" transform="translate(42 448)" font-size="12" font-family="OpenSans-Regular, Open Sans"><tspan x="43.413" y="13">Visit </tspan><tspan x="12.464" y="30">intromech.com</tspan></text>
        <g id="peep-52" transform="translate(126.718 523.6)">
          <g id="BODY" transform="translate(0 68.701)">
            <path id="_Skin-3" data-name="âœ‹ Skin" d="M77.925.028C73.489.247,66.582,2.149,66.237,3.365c-.539,1.9.619,9.017-1.319,12.851-.826,1.634-3.963,1.488-5.179,2.02-4.067,1.781-16.107,5.159-18.59,9.411-.995,1.7-7.107,22.846-10.354,33.632a31.283,31.283,0,0,1-1.229,3.382l-.165-.809q-1.986-9.779-1.986-11.839c0-2.147,1.712-11.2,0-13.508A12.668,12.668,0,0,0,19.8,34.323h-.055a4.694,4.694,0,0,1-3.14-1.132l-1.3-.654Q5.376,27.554,3.7,27.07C1.925,26.555-1.1,27.652.411,29.3A55.1,55.1,0,0,0,8.02,35.12l1.532,1.218-.185.1Q6.4,38,5.874,39.068a2.527,2.527,0,0,0,.517,2.607l-.107.1q-1.335,1.311-1.335,1.758v1.458q-1.328,1.946-.664,3.246a6,6,0,0,0,2.106,2.253,9.232,9.232,0,0,0,2.53,3.98A12.729,12.729,0,0,0,14,56.444l2.176,5.2,1.763,7.311.888,8.158-.258.187c-1.2.871-1.961,1.517-1.961,2.184,0,1.039,4.823,25.485,12.328,26.579,1.623.237,10.04-.924,12.8-3.173l-.041.243q-.975,5.893.413,6.121,17.059,2.8,96.9,1.729.475-42.391-4.3-56.463c-8.134-23.994-17.1-32.189-20.24-32.891-2.748-.615-12.279-4.409-14.943-5.417-1.739-.657-2.112-2.629-4.093-2.629h-.16c-1.917.019-3.616.362-4.571-.624-2.506-2.588-1.805-6.169-2.845-9.6C87.283,1.476,83.369-.241,77.925.028Z" transform="translate(0.223 0)" fill="#d08b5b"/>
            <path id="_Jacket-2" data-name="ðŸ§¥ Jacket" d="M78.828,0h-.16c-.474,0-.934.029-1.373.049L78.22,3.2l.02.331q.9,16.313-15.97,15.618T45.485,8.476l0-.2V4.132l-.177.034a12.216,12.216,0,0,0-2.175.482C39.069,6.43,27.029,9.807,24.547,14.06c-.995,1.7-7.107,22.846-10.354,33.632q-.178.591-.371,1.154v2.132l.035.129Q15.564,57.5,9.311,61.553A24.955,24.955,0,0,1,.205,65.287,1.127,1.127,0,0,0,0,65.9c0,1.039,4.823,25.485,12.328,26.579,1.623.237,10.04-.924,12.8-3.173l-.041.243-.038.233q-.91,5.665.451,5.888,17.059,2.8,96.9,1.729.475-42.391-4.3-56.463C109.97,16.942,101,8.747,97.864,8.045,95.116,7.43,85.586,3.636,82.922,2.629,81.183,1.971,80.81,0,78.828,0Z" transform="translate(16.827 13.587)" fill="#ba98de"/>
            <path id="_Ink-4" data-name="ðŸ– Ink" d="M57.153,0a9.079,9.079,0,0,0-1.815.156,4.279,4.279,0,0,0-1.575.632,1.265,1.265,0,0,0-.584.4,3.362,3.362,0,0,0-.495.786A11.684,11.684,0,0,0,51.921,4.4c-.422,1.9-.694,4.268-.913,6.172a31.356,31.356,0,0,1-.513,3.539l-.247,1.66c-.894,6.041-1.931,13.193-2.839,20.44-.945,7.539-1.636,14.268-2.113,20.57-.267,3.531-.471,7-.606,10.309-.143,3.515-.215,6.985-.212,10.312,0,3.5.089,6.969.254,10.3.173,3.488.439,6.949.791,10.287a4.773,4.773,0,0,1-1.362-.244,4.048,4.048,0,0,1-1.095-.573,5.14,5.14,0,0,1-1.51-1.882,10.248,10.248,0,0,1-.813-2.446,21.517,21.517,0,0,1-.365-2.506,24.918,24.918,0,0,0-1.038-4.763c-.483-1.552-1.078-3.1-1.654-4.6h0c-.653-1.7-1.329-3.458-1.841-5.223a25.772,25.772,0,0,1-.636-2.679,18.884,18.884,0,0,1-.294-2.761A11.973,11.973,0,0,1,35.9,65.38c.287-.609.6-1.22.933-1.867a25.352,25.352,0,0,0,2.228-5.276,8.468,8.468,0,0,0,.261-2.725,6.735,6.735,0,0,0-.249-1.366,6.9,6.9,0,0,0-.566-1.361,15.416,15.416,0,0,1-1.543-2.125,4.82,4.82,0,0,1-.633-1.738,12.275,12.275,0,0,1,.641-4.419l.02-.08c.615-2.938,1.328-5.914,2.18-9.1.759-2.835,1.611-5.771,2.6-8.976C43.626,20.4,45.694,14.4,47.694,8.608c.471-1.365.958-2.777,1.437-4.173-.111-.58-.292-.874-.538-.874-.178,0-.393.154-.641.457a7.989,7.989,0,0,0-.782,1.242,40.914,40.914,0,0,0-1.794,4.05c-1.234,3.134-2.434,6.722-3.151,8.865l0,.005c-.267.8-.461,1.376-.54,1.582a2.128,2.128,0,0,0-.955-.246,1.617,1.617,0,0,0-.7.158,1.745,1.745,0,0,0-.549.417,2.086,2.086,0,0,0-.516,1.26,1.646,1.646,0,0,0,.359,1.148,1.606,1.606,0,0,0,.529.41,2.331,2.331,0,0,0,.791.215C38.492,30.314,36.8,36.7,35.462,42.652l-.039.185c-.088.411-.186.822-.289,1.257a19.907,19.907,0,0,0-.685,4.164,6.766,6.766,0,0,0,.243,2.012,5.275,5.275,0,0,0,.963,1.854c3.217,3.254,1.508,6.724-.3,10.4-1.335,2.71-2.715,5.512-2.218,8.416a1.478,1.478,0,0,0-.887-.292,1.661,1.661,0,0,0-.646.134,1.711,1.711,0,0,0-.546.371,1.5,1.5,0,0,0-.439,1.085,1.437,1.437,0,0,0,.414,1.068,1.731,1.731,0,0,0,1.222.514,1.464,1.464,0,0,0,1.137-.52,25.718,25.718,0,0,0,1.087,4.1c.462,1.336,1.007,2.672,1.534,3.963.516,1.264,1.049,2.571,1.5,3.877a26.251,26.251,0,0,1,1.085,4l.045.26c.074.431.137.874.2,1.3h0a13.259,13.259,0,0,0,1.193,4.5A26.458,26.458,0,0,0,35.9,93.157a2.127,2.127,0,0,0,.663-.859,1.076,1.076,0,0,0,.012-.759A1.6,1.6,0,0,0,35.1,90.6a1.155,1.155,0,0,0-.885.37,1.262,1.262,0,0,0-.274.555,2.417,2.417,0,0,0-.026.845c-13.8-3.993-17.1-9.413-22.384-22.76a1.136,1.136,0,0,0,.8.333,1.416,1.416,0,0,0,1.165-.665,1.142,1.142,0,0,0,.069-1.138,1.131,1.131,0,0,0-.466-.586,1.273,1.273,0,0,0-.679-.187,1.426,1.426,0,0,0-.907.322,1.143,1.143,0,0,0-.416.9l-.235-.561c-2.823-6.753-5.91-14.784-7.406-23.154A2.438,2.438,0,0,0,3.8,44.9a1.443,1.443,0,0,0,1.072-.41,1.359,1.359,0,0,0,.308-.518,1.715,1.715,0,0,0,.084-.61,1.8,1.8,0,0,0-.386-1.057,1.271,1.271,0,0,0-1.008-.481,1.943,1.943,0,0,0-.86.225A136.349,136.349,0,0,1,2.1,20.528a1.774,1.774,0,0,0,.81.231.914.914,0,0,0,.741-.348,1.247,1.247,0,0,0,.254-.765,1.185,1.185,0,0,0-.312-.847.917.917,0,0,0-.669-.266,1.828,1.828,0,0,0-.8.218c.05-3.306.113-6.668.175-9.919.048-2.529.1-5.144.14-7.73a.9.9,0,0,0-.245-.66A.989.989,0,0,0,1.483.168,1.039,1.039,0,0,0,.812.4a.917.917,0,0,0-.32.7C.439,3.221.375,5.371.313,7.45.111,14.267-.1,21.315.051,28.242.028,30.173.077,32.144.2,34.1c.117,1.911.3,3.862.557,5.8.247,1.89.563,3.819.939,5.734.367,1.866.8,3.772,1.292,5.663A111.324,111.324,0,0,0,6.51,62.384c1.316,3.51,2.859,7.122,4.587,10.736a40.02,40.02,0,0,0,4.7,9.364,24.628,24.628,0,0,0,2.758,3.285,23.186,23.186,0,0,0,3.093,2.586,33.892,33.892,0,0,0,7.377,3.778c2.755,1.066,5.778,2,9.278,3.083h0q1,.309,2.061.639a8.04,8.04,0,0,0,2.216,2.177,5.385,5.385,0,0,0,2.9.971,3.543,3.543,0,0,0,1.69-.419,26.25,26.25,0,0,1,2.116,4.725c.3.8.6,1.63.942,2.414a.746.746,0,0,0,.711.392,1.583,1.583,0,0,0,.7-.177,1.419,1.419,0,0,0,.557-1.468,6.956,6.956,0,0,0-.607-1.735,9,9,0,0,1-.391-.958,14.05,14.05,0,0,0-.863-1.748,12.326,12.326,0,0,0-1.125-1.619A8.861,8.861,0,0,0,46.2,95.99c.032-.386.066-.791.093-1.117.163-1.947.332-3.959.4-5.946,2.919-3.622,7.766-5,12.48-6.093a13.7,13.7,0,0,1,3.652-.491A14.458,14.458,0,0,1,76.467,91.8a5.224,5.224,0,0,0-1.681,1.556A7.24,7.24,0,0,0,73.774,95.5a8.84,8.84,0,0,0-.356,2.376,7.937,7.937,0,0,0,.286,2.268.306.306,0,0,0,.278.193.219.219,0,0,0,.2-.129,9.678,9.678,0,0,0,.673-2.3,8.778,8.778,0,0,1,.805-2.566,50.948,50.948,0,0,0,6.36-1.022,45.515,45.515,0,0,0,6.538-1.986,32.542,32.542,0,0,0,6.018-3.062,20.972,20.972,0,0,0,4.8-4.252c1.929-2.689,2.892-6.029,3.823-9.259h0c.192-.665.39-1.353.591-2.013,1.286-4.078,2.455-8.268,3.585-12.319v0c1.027-3.682,2.089-7.49,3.236-11.2L110.9,51.7c.373,1.948.755,4.025.969,6.129a27.067,27.067,0,0,1-.009,6.181l-.009.2c-.028.528-.078,1.134-.131,1.775-.278,3.367-.66,7.977,1.479,9.839a14.07,14.07,0,0,0,3.172,1.83,9.556,9.556,0,0,0,3.6.771,6.541,6.541,0,0,0,1.768-.235,56.273,56.273,0,0,1,5.956,3.255c1.433.86,2.915,1.749,4.419,2.517.809.414,1.56.76,2.3,1.06a21.141,21.141,0,0,0,2.4.821,5.393,5.393,0,0,0,1.07.108,4.2,4.2,0,0,0,1.3-.19,2.157,2.157,0,0,0,1-.635,1.922,1.922,0,0,0,.351-1.637,6.4,6.4,0,0,0-.993-2.059,8.838,8.838,0,0,0-1.561-1.642,25.823,25.823,0,0,0-3.978-2.537c-.841-.467-1.635-.909-2.366-1.386a5.261,5.261,0,0,0,1.949-1.055,5.044,5.044,0,0,0,.8-.835,3.615,3.615,0,0,0,.526-.966,2.4,2.4,0,0,0-.354-2.313.684.684,0,0,0-.038-.09,2.064,2.064,0,0,0,.766-.572,2.177,2.177,0,0,0,.409-.8,3.089,3.089,0,0,0,.109-.919,4.192,4.192,0,0,0-.134-.942c-.013-.135-.036-.165-.044-.177s0-.006,0-.014a.816.816,0,0,0,.113-.149,2.218,2.218,0,0,0,.5-.726,3.323,3.323,0,0,0,.247-.921,4.322,4.322,0,0,0-.219-1.986,2.978,2.978,0,0,0-.728-1.159,1.84,1.84,0,0,0-1.173-.518,4.469,4.469,0,0,0-.639-2.582,5.9,5.9,0,0,0-.819-1.093,6.076,6.076,0,0,0-1.029-.872,9.429,9.429,0,0,0-2.24-.978,13.975,13.975,0,0,1-1.6-.613,4.282,4.282,0,0,1-1.349-.969,28.721,28.721,0,0,1-1.951-4.238,36.268,36.268,0,0,1-1.316-4.5,55.709,55.709,0,0,1-1.209-9.325,5.1,5.1,0,0,0,1.726-1.089,3.373,3.373,0,0,0,.985-1.63,2.208,2.208,0,0,0-.028-1.12,2.74,2.74,0,0,0-.677-1.121h0l-.108-.011a40.887,40.887,0,0,1-1.733-7.156c-.1-.565-.206-1.148-.314-1.718a29.066,29.066,0,0,0-.9-3.735A33.08,33.08,0,0,0,119.8,15.4c-.5-1.129-1.085-2.279-1.733-3.418-.611-1.073-1.3-2.169-2.041-3.258a7.681,7.681,0,0,0-3.459-3.068,9.956,9.956,0,0,0-2.236-.714,12.467,12.467,0,0,0-2.41-.228,15.213,15.213,0,0,0-4.747.784,13.186,13.186,0,0,0-4.027,2.126c0-.221.016-.444.027-.659a5.775,5.775,0,0,0-.157-2.151,1.047,1.047,0,0,0-.331-.429.7.7,0,0,0-.407-.134.832.832,0,0,0-.59.268,1.2,1.2,0,0,0-.321.708,1.766,1.766,0,0,0-.855-.256,1.085,1.085,0,0,0-.872.426,1.629,1.629,0,0,0-.331.938,1.4,1.4,0,0,0,.349,1.024,1.174,1.174,0,0,0,.872.341,2.128,2.128,0,0,0,.541-.076c-.218,3.422-.335,6.8-.42,9.662a2.422,2.422,0,0,0-.742-.127,1.48,1.48,0,0,0-1.163.514,1.812,1.812,0,0,0-.414,1.13,1.7,1.7,0,0,0,.441,1.23,1.423,1.423,0,0,0,1.049.415,2.507,2.507,0,0,0,.768-.133l0,1.384c-.011,5.063.008,10.5.214,15.925.223,5.869.642,11.058,1.281,15.862.064.392.153.784.238,1.163s.174.776.239,1.169a.059.059,0,0,0,.062.051.075.075,0,0,0,.079-.07c.081-5.524,0-11.145-.088-16.581-.069-4.536-.141-9.226-.115-13.839.029-5.174.18-9.7.462-13.834a2.5,2.5,0,0,0,1.191-1.061,4.654,4.654,0,0,1,.6-.713,9.09,9.09,0,0,1,5.078-2.1,15.621,15.621,0,0,1,2.175-.167,6.8,6.8,0,0,1,4.364,1.322,11.778,11.778,0,0,1,3.085,4.15,1.154,1.154,0,0,0-.651-.2,1.281,1.281,0,0,0-.66.189,1.373,1.373,0,0,0-.481.486,1.161,1.161,0,0,0-.159.547,1.119,1.119,0,0,0,.156.6l.02.033a1.115,1.115,0,0,0,1,.587,1.35,1.35,0,0,0,.56-.124,1.313,1.313,0,0,0,.457-.346,1.126,1.126,0,0,0,.224-.423,1.169,1.169,0,0,0,.02-.523,28.272,28.272,0,0,1,2.72,5.817,51.154,51.154,0,0,1,1.664,6.214l.12.5c.2.837.454,1.823.787,2.788a12.368,12.368,0,0,0,1.24,2.661,20.571,20.571,0,0,0-8.74,4.7,14.555,14.555,0,0,0-4.744,8.545c-1.4-4.391-3.251-8.754-5.043-12.974v0c-.264-.621-.536-1.263-.8-1.893-.232-.617-.417-1.261-.6-1.883a14.186,14.186,0,0,0-1.226-3.235.452.452,0,0,0-.4-.23.493.493,0,0,0-.475.344c-.622,2.78.641,5.449,1.863,8.029.406.858.789,1.667,1.108,2.484.281.5.708,1.483,1.2,2.623.688,1.584,1.543,3.555,2.392,5.114a12.262,12.262,0,0,0,1.253,1.945c.429.515.811.778,1.136.782-.814,3.57-1.811,7.465-3.047,11.907-1.1,3.957-2.285,7.965-3.429,11.841-.38,1.288-.774,2.621-1.158,3.929a30.267,30.267,0,0,1-2.508,7.594,16.887,16.887,0,0,1-1.728,2.728,15.3,15.3,0,0,1-2.095,2.2c-3.082,2.656-7.251,4.226-12.8,6.154a32.756,32.756,0,0,1,1.533-5.188c.647-1.724,1.41-3.473,2.148-5.165h0c.729-1.671,1.482-3.4,2.126-5.1a33.81,33.81,0,0,0,1.545-5.147,18.7,18.7,0,0,0,.377-5.222,15.622,15.622,0,0,0-.433-2.649,16.047,16.047,0,0,0-.944-2.679l-.12-.281a5.632,5.632,0,0,1-.57-3.709,11.179,11.179,0,0,1,1.252-2.664c.163-.279.331-.568.487-.856a14.307,14.307,0,0,0,.931-2.134,15.407,15.407,0,0,0,.571-2.2,19.945,19.945,0,0,0,.273-4.52,55.264,55.264,0,0,0-1.455-9.144c-.2-.906-.4-1.842-.579-2.744-.355-1.652-.715-3.332-1.063-4.957l-.013-.059c-1.311-6.117-2.667-12.442-4.049-18.654-.1-.46-.193-.931-.282-1.387a25.159,25.159,0,0,0-.809-3.327.766.766,0,0,0-.325-.405.926.926,0,0,0-.483-.135.758.758,0,0,0-.565.227.656.656,0,0,0-.154.519,28.691,28.691,0,0,0,.7,3.773c.113.487.229.991.334,1.489.912,4.724,1.975,9.5,3,14.125h0c1.434,6.445,2.918,13.11,4.012,19.726a14.733,14.733,0,0,1-.182,5.772,17.174,17.174,0,0,1-1.59,3.839,10.424,10.424,0,0,0-1.6,5.526,22.262,22.262,0,0,0,1.015,3.015,26.253,26.253,0,0,1,.891,2.533,8.872,8.872,0,0,1,.354,2.673,19.059,19.059,0,0,1-.2,3.634,25.585,25.585,0,0,1-.789,3.5A66.565,66.565,0,0,1,85.4,81.274c-.767,1.83-1.559,3.722-2.19,5.618-.34,1.021-.607,1.961-.817,2.874a22.221,22.221,0,0,0-.482,2.952l-1.439.513c-.868.311-1.532.552-2.154.783a273.1,273.1,0,0,0,2.49-39.862c-.024-6.234-.2-12.781-.541-20.016-.278-5.913-.662-12.251-1.209-19.944a28.127,28.127,0,0,1-.226-3.751c-.059-1.891-.132-4.245-.311-6.074a14.293,14.293,0,0,0-.362-2.274,2.523,2.523,0,0,0-.264-.663.42.42,0,0,0-.332-.239h0a.323.323,0,0,0-.137.033,1.424,1.424,0,0,0-.266-.651A.756.756,0,0,0,76.549.28h0C73.376.251,70.161.208,67.052.167h-.036C65.217.142,63.357.117,61.528.1c-.267.025-.559.037-.89.037-.542,0-1.1-.031-1.691-.065h-.028C58.341.034,57.744,0,57.153,0Zm62.608,77.194h0a6.455,6.455,0,0,1-2.459-.569l-.354-.133a12.946,12.946,0,0,1-1.81-.814,4.351,4.351,0,0,1-1.464-1.253,4.138,4.138,0,0,1-.375-2.17c0-.273,0-.531-.021-.75a33.871,33.871,0,0,1,.18-8.083,37.019,37.019,0,0,0-.626-9.492,39.826,39.826,0,0,0-2.917-9.062,35.812,35.812,0,0,1,2.152-3.119,26.676,26.676,0,0,1,2.524-2.832,20.356,20.356,0,0,1,2.932-2.365,16.7,16.7,0,0,1,3.378-1.718,85.977,85.977,0,0,0,2.165,14.36l.04.207c.058.3.112.615.165.916a22.3,22.3,0,0,0,.592,2.713,8.622,8.622,0,0,0,.5,1.282,6.643,6.643,0,0,0,.75,1.2,8.29,8.29,0,0,0,3.861,2.171c1.9.632,3.692,1.228,4.795,4.152a.386.386,0,0,0-.192.449.392.392,0,0,0,.373.318.442.442,0,0,0,.117-.017,1.24,1.24,0,0,1,.216-.02c.528,0,.944.382,1.142,1.049a2.964,2.964,0,0,1,.053,1.406,1.633,1.633,0,0,1-.624,1.063,1.154,1.154,0,0,0-.375.348.983.983,0,0,0-.151.407,2.929,2.929,0,0,0,.074.918,2.029,2.029,0,0,1-.04,1.319,1.347,1.347,0,0,1-.542.407,1.344,1.344,0,0,0-.61.492,1.9,1.9,0,0,0,.336,1.708,4.243,4.243,0,0,1,.344.726,1.184,1.184,0,0,1,.017.749,1.759,1.759,0,0,1-.589.777,6.711,6.711,0,0,1-1.468.868,3.564,3.564,0,0,1-1.215.177c-.253,0-.506-.014-.75-.028h-.014c-.239-.013-.485-.027-.72-.027h-.023a5.788,5.788,0,0,1-2.021-.711,7.218,7.218,0,0,0-1.478-.606,4.321,4.321,0,0,0,.256-1,3.968,3.968,0,0,0,.01-.954,3.617,3.617,0,0,0-.6-1.639,2.781,2.781,0,0,0-2.293-1.276,2.865,2.865,0,0,0-1.115.234,4.072,4.072,0,0,0-1.146.752,7.857,7.857,0,0,1-1.375-1.773,2.169,2.169,0,0,1-.4-1.621.657.657,0,0,1,.689-.363,4.517,4.517,0,0,1,1.588.416c.582.389,1.148.819,1.7,1.235.617.469,1.255.954,1.916,1.379a10.234,10.234,0,0,0,2.118,1.068l.046.015c.14.046.357.133.631.244a10.043,10.043,0,0,0,2.927.864.721.721,0,0,0,.556-.179.525.525,0,0,0,.1-.426,4.305,4.305,0,0,0-1.281-.824,14.241,14.241,0,0,0-1.487-.524,8.775,8.775,0,0,1-2.331-.979,10.615,10.615,0,0,1-2.193-1.51,12.542,12.542,0,0,0-1.762-1.282,4.711,4.711,0,0,0-.983-.421,3.89,3.89,0,0,0-1.109-.159h-.053a2.016,2.016,0,0,1,.228-1.632,1.16,1.16,0,0,1,.932-.36,5.249,5.249,0,0,1,2.044.569,14.38,14.38,0,0,1,1.815,1.006l.422.229c2.179,1.178,4.342,2.236,6.833,2.251h0a.5.5,0,0,0,.513-.525.569.569,0,0,0-.128-.372.5.5,0,0,0-.389-.174c-2.635-.016-4.893-1.361-7.077-2.661-.517-.308-1.052-.626-1.579-.919a1.16,1.16,0,0,1,.215-.948,1.558,1.558,0,0,1,1.209-.394,9.928,9.928,0,0,1,2.394.426l.162.043a7.352,7.352,0,0,1,1.446.452,6.349,6.349,0,0,0,2.057.549,1.355,1.355,0,0,0,.763-.2.608.608,0,0,0,0-.529c-.184-.34-.777-.466-1.3-.577a3.5,3.5,0,0,1-.772-.219c1.092-.525,1.421-.978,1.365-1.226-.029-.129-.163-.207-.357-.207a1.261,1.261,0,0,0-.745.3,2.239,2.239,0,0,0-.686,1l-.23-.079a13.508,13.508,0,0,0-4.057-.842,2.3,2.3,0,0,0-1.823.611,1.832,1.832,0,0,0-.283,1.54,4.444,4.444,0,0,0-1.751-.4,2.957,2.957,0,0,0-.64.068,4.8,4.8,0,0,0-1.369-1.369,2.335,2.335,0,0,0-1.152-.412c-.221,0-.364.076-.392.208-.066.316.514.97,2.364,1.775a1.572,1.572,0,0,0-.673.638,2.25,2.25,0,0,0-.3.938,1.9,1.9,0,0,0,.1.822,1.317,1.317,0,0,0,.483.636c-.966.059-1.551.377-1.74.946a3.117,3.117,0,0,0,.6,2.306,9.121,9.121,0,0,0,.841,1.152,7.807,7.807,0,0,0,.867.879c-.153.155-.286.3-.406.436a8.039,8.039,0,0,0-1.33-.5,8.148,8.148,0,0,0-1.411-.254c-.024,0-.047,0-.07,0a.667.667,0,0,0-.526.249.971.971,0,0,0-.212.552.721.721,0,0,0,.589.829,7.486,7.486,0,0,1,2.752.894.968.968,0,0,0,.383.085c.5,0,.874-.467,1.266-.961.4-.51.822-1.038,1.421-1.078a1.041,1.041,0,0,1,.2-.02,1.305,1.305,0,0,1,1.142,1.134,12.807,12.807,0,0,1-.406,2.038,7.263,7.263,0,0,1-.784,1.813,3.5,3.5,0,0,1-3.1,1.8Zm18.368,7.423a2.861,2.861,0,0,1-.558-.06,17.42,17.42,0,0,1-5.811-2.355c-.517-.285-1.006-.554-1.5-.807-1.542-.815-3.142-1.554-4.689-2.27h0c-.954-.441-1.939-.9-2.905-1.367a5.746,5.746,0,0,0,1.381-1.211,8.658,8.658,0,0,0,1.042-1.59,6.564,6.564,0,0,0,1.985,1.013,8.287,8.287,0,0,0,2.206.378,10.586,10.586,0,0,0,1.949,1.438c.7.418,1.466.8,2.2,1.163a26.353,26.353,0,0,1,2.878,1.586,9.941,9.941,0,0,1,1.275,1,7.381,7.381,0,0,1,1.074,1.24,2.308,2.308,0,0,1,.451.788.845.845,0,0,1-.018.609.979.979,0,0,1-.96.449ZM21.282,2.838a.848.848,0,0,0-.762.427A1.011,1.011,0,0,0,20.8,4.431a.269.269,0,0,1-.013.029l-.009.019c-.022.063-.049.125-.075.184a2.087,2.087,0,0,0-.087.221A3.641,3.641,0,0,0,20.514,6c0,.083,0,.168,0,.251,0,.662.019,1.334.037,1.985h0q.006.213.012.426c.051,1.852.106,3.528.169,5.124.249,6.3.74,12.483,1.141,17.169l.166,1.928c.224,2.606.452,5.154.772,7.681.015.118.03.243.047.366a1.69,1.69,0,0,0-.463.341,6.177,6.177,0,0,0-1.046,1.871l-.07.167-.067.158a11.173,11.173,0,0,0-.76,2.285l-.014.073-.007.033c-.07.341-.186.911.161,1.07a.368.368,0,0,0,.149.038c.1,0,.174-.068.218-.2a.089.089,0,0,0-.012-.073,3.229,3.229,0,0,1,.284-.354,3.434,3.434,0,0,0,.242-.295l.5-.716.247-.36c.277-.408.593-.834.994-1.339a43.726,43.726,0,0,0,1.125,5.682.166.166,0,0,0,.164.127.183.183,0,0,0,.186-.174,65.485,65.485,0,0,0-.16-7.645c-.059-.872-.126-1.756-.192-2.612V39c-.051-.669-.1-1.362-.152-2.04-.289-4.058-.526-8.179-.7-12.25a1.6,1.6,0,0,0,.193.067,1.723,1.723,0,0,0,.923,0,1.72,1.72,0,0,0,.721-.4l.044-.042a1.955,1.955,0,0,0,.51-1.171V23.1a1.707,1.707,0,0,0-.237-.876,1.76,1.76,0,0,0-.621-.623,1.74,1.74,0,0,0-.876-.236c-.032,0-.066-.006-.1-.008h-.055a1.275,1.275,0,0,0-.6.146l-.03.009c-.078-2.12-.14-4.214-.184-6.223-.018-.776-.038-1.561-.058-2.32-.026-1.017-.054-2.069-.075-3.1l-.017-.9-.033-2q0-.064,0-.127A6.7,6.7,0,0,0,22.7,4.577l-.033-.089c-.036-.093-.07-.189-.105-.292a2.057,2.057,0,0,0-.79-1.234,1.047,1.047,0,0,0-.492-.124Zm24.28,2.229a1.145,1.145,0,0,0-.7.244l-.031.023-.03.024a.792.792,0,0,0-.262.6.826.826,0,0,0,.236.644l.026.021c.018.015.037.03.061.047a1.144,1.144,0,0,0,.7.243.9.9,0,0,0,.942-.924.893.893,0,0,0-.287-.689A.974.974,0,0,0,45.562,5.067ZM17.7,5.3h-.054a1.551,1.551,0,0,0-.793.215l-.2.155,0,0-.014.011-.1.076a1.576,1.576,0,0,0-.4.693l-.012.094v0c-.014.1-.028.214-.044.32a1.206,1.206,0,0,0,.136.6,1.19,1.19,0,0,0,.324.505,1.159,1.159,0,0,0,.506.325,1.173,1.173,0,0,0,.552.137h.054a1.549,1.549,0,0,0,.792-.215l.231-.178.087-.067a1.565,1.565,0,0,0,.4-.693l.056-.417a1.193,1.193,0,0,0-.136-.605,1.193,1.193,0,0,0-.324-.506,1.172,1.172,0,0,0-.505-.324A1.167,1.167,0,0,0,17.7,5.3ZM88.657,8.051a.757.757,0,0,0-.192.025,1.074,1.074,0,0,0-.533.171l-.252.2-.039.03a3.852,3.852,0,0,0-.239.308c-.052.123-.1.24-.148.349a1.562,1.562,0,0,0,0,.8v.006a.708.708,0,0,0,.037.136l.033.089a1.571,1.571,0,0,0,.29.512l.059.079a1.035,1.035,0,0,0,.095.113,1.686,1.686,0,0,0,.226.183c.042.03.082.059.119.088a1.513,1.513,0,0,0,.757.2l.4-.053a1.5,1.5,0,0,0,.9-.69,1.12,1.12,0,0,0,.178-.557,1.143,1.143,0,0,0-.027-.6,1.129,1.129,0,0,0-.268-.51,1.042,1.042,0,0,0-.16-.195,1.715,1.715,0,0,0-.509-.486,1.075,1.075,0,0,0-.535-.171A.743.743,0,0,0,88.657,8.051Zm-51.385,1.8h-.046a1.221,1.221,0,0,0-.621.168l-.25.192a1.251,1.251,0,0,0-.317.544c-.012.1-.025.192-.038.286v0L36,11.08a.925.925,0,0,0,.107.474.928.928,0,0,0,.254.4,1.409,1.409,0,0,0,.82.362h.051a1.237,1.237,0,0,0,.62-.168l.25-.194a1.23,1.23,0,0,0,.317-.542c.012-.1.026-.2.04-.3h0l0-.029a.936.936,0,0,0-.107-.475.914.914,0,0,0-.254-.4.941.941,0,0,0-.4-.254A.922.922,0,0,0,37.273,9.849Zm-9.959.112a1.282,1.282,0,0,0-.434.072,2.194,2.194,0,0,0-.408.181,1.828,1.828,0,0,0-.527.538v0a1.373,1.373,0,0,0,0,1.385,1.384,1.384,0,0,0,1.183.678h.016a1.543,1.543,0,0,0,.886-.271,1.514,1.514,0,0,0,.568-.664l.008-.018c.032-.074.061-.145.088-.218a1.21,1.21,0,0,0-.026-1.04,1.377,1.377,0,0,0-.891-.574A1.609,1.609,0,0,0,27.314,9.961Zm-16.467,0a2.445,2.445,0,0,0-.415.039,1.5,1.5,0,0,0-.675.369.919.919,0,0,0-.266.818.932.932,0,0,0,.362.629v0l-.073-.056.073.068.009.009a.493.493,0,0,1,.023.046v0a1.273,1.273,0,0,0,.455.455,1.277,1.277,0,0,0,1.867-1.435,1.274,1.274,0,0,0-.888-.888A1.945,1.945,0,0,0,10.847,9.965Zm94.224,4.71a1.784,1.784,0,0,0-.669.172,1.479,1.479,0,0,0-.446.445.918.918,0,0,0-.148.463.64.64,0,0,0,0,.329.929.929,0,0,0,.148.463l.195.252.02.017a1.243,1.243,0,0,0,.551.321,1.257,1.257,0,0,0,.664,0,.93.93,0,0,0,.425-.224.94.94,0,0,0,.3-.308l.024-.043a1.3,1.3,0,0,0,.126-.963,1.167,1.167,0,0,0-.319-.553,1.192,1.192,0,0,0-.553-.32l-.014,0-.014,0A.955.955,0,0,0,105.072,14.674ZM89.392,22.1a1.427,1.427,0,0,0-1.122.484,1.7,1.7,0,0,0,0,2.13,1.542,1.542,0,0,0,2.244,0,1.7,1.7,0,0,0,0-2.13A1.427,1.427,0,0,0,89.392,22.1Zm-72.93.365a1.216,1.216,0,0,0-.365.057l-.14.059-.236.1-.32.247-.247.32-.079.188-.08.189-.056.419a1.187,1.187,0,0,0,.135.608,1.559,1.559,0,0,0,.486.631.791.791,0,0,0,.347.2.78.78,0,0,0,.4.107,1.2,1.2,0,0,0,.264.03,1.217,1.217,0,0,0,.365-.057l.1-.044.272-.114.32-.247a.576.576,0,0,0,.1-.118c.013-.019.027-.038.043-.059l.069-.09a1.045,1.045,0,0,0,.169-.336l.041-.107a1.546,1.546,0,0,0,0-.814,1.448,1.448,0,0,0-.157-.368,1.517,1.517,0,0,0-.222-.294l-.043-.044a1.2,1.2,0,0,0-.507-.326.781.781,0,0,0-.4-.107A1.207,1.207,0,0,0,16.462,22.463Zm98.569,2.869a1.151,1.151,0,0,0-.591.161,1.314,1.314,0,0,0-.438.43.628.628,0,0,0-.051.112c-.007.018-.014.037-.022.054l-.022.051a1,1,0,0,0-.047.117,1.244,1.244,0,0,0,0,.649.921.921,0,0,0,.218.414.932.932,0,0,0,.343.314,1.217,1.217,0,0,0,.565.166h.091a.9.9,0,0,0,.428-.106,1.038,1.038,0,0,0,.146-.063,1.222,1.222,0,0,0,.439-.437.923.923,0,0,0,.145-.454.91.91,0,0,0-.01-.442l-.013-.044a1.192,1.192,0,0,0-.15-.333.182.182,0,0,0-.023-.035,1.193,1.193,0,0,0-.405-.393,1.213,1.213,0,0,0-.6-.163Zm-84.067,1.4a.611.611,0,0,0-.161.022,1.176,1.176,0,0,0-.574.239.9.9,0,0,0-.312.34l-.123.291-.042.323.042.321.067.158a1.284,1.284,0,0,0,.9.9,1.3,1.3,0,0,0,.342.047,1.271,1.271,0,0,0,.288-.034l.052-.013a.98.98,0,0,0,.437-.229.993.993,0,0,0,.33-.361,1.282,1.282,0,0,0-.461-1.755l-.167-.081a.9.9,0,0,0-.451-.143A.625.625,0,0,0,30.964,26.727Zm75.693,1.894a1.288,1.288,0,0,0-.387.061l-.282.119-.008,0-.106.045-.246.189,0,0-.088.068-.056.073-.2.263a1.228,1.228,0,0,0-.2.619.829.829,0,0,0,0,.442.82.82,0,0,0,.113.419,1.247,1.247,0,0,0,.344.536l.069.053c.087.068.178.138.268.206l.4.167a1.261,1.261,0,0,0,.664.03,1.654,1.654,0,0,0,.786-.328,1.266,1.266,0,0,0,.428-.466l.167-.4a1.689,1.689,0,0,0,0-.9,1.236,1.236,0,0,0-.292-.557.828.828,0,0,0-.294-.294,1.239,1.239,0,0,0-.488-.274l-.051-.014-.018,0-.009,0a.009.009,0,0,0-.006,0,1.1,1.1,0,0,0-.225-.032A1.288,1.288,0,0,0,106.657,28.621ZM9.438,34.551a1.492,1.492,0,0,0-.334.038,1.094,1.094,0,0,0-.338.146,1.193,1.193,0,0,0-.4.406,1.075,1.075,0,0,0-.151.549.914.914,0,0,0,.009.128.987.987,0,0,0-.026.271l.046.344,0,.009a1.288,1.288,0,0,0,.847.882l.05.015h.008a1.292,1.292,0,0,0,.69,0l.309-.129a.97.97,0,0,0,.364-.335.963.963,0,0,0,.233-.442,1.462,1.462,0,0,0,.008-.835,1.6,1.6,0,0,0-.4-.682,1.258,1.258,0,0,0-.918-.366ZM93.6,37.811a1.224,1.224,0,0,0-.828.343,1.182,1.182,0,0,0-.343.829.89.89,0,0,0,.1.451.872.872,0,0,0,.209.344l.033.032a1.172,1.172,0,0,0,1.657,0,1.174,1.174,0,0,0,.343-.827,1.3,1.3,0,0,0-.343-.829A1.219,1.219,0,0,0,93.6,37.811Zm9.648,6.543a1.454,1.454,0,0,0-.735.2,1.475,1.475,0,0,0-.522.522,1.014,1.014,0,0,0-.17.424,1.484,1.484,0,0,0,.342,1.4l.039.04a1.684,1.684,0,0,0,1,.435h.051a1.491,1.491,0,0,0,.748-.2l.1-.08h0l.2-.152a1.484,1.484,0,0,0,.381-1.442,1.03,1.03,0,0,0-.169-.424,1.491,1.491,0,0,0-.524-.522A1.455,1.455,0,0,0,103.25,44.354Zm-73.062.419h0l-.129.017a.937.937,0,0,0-.15.017l-.049.011-.045.012a.951.951,0,0,0-.174.07.63.63,0,0,0-.279.163.954.954,0,0,0-.326.355l-.021.049a.884.884,0,0,0-.072.163.6.6,0,0,0-.079.294.89.89,0,0,0,.008.417l.013.046.117.279a1.421,1.421,0,0,0,.207.268c.051.045.172.139.238.186l.042.028a.949.949,0,0,0,.469.149.63.63,0,0,0,.337,0,.948.948,0,0,0,.469-.149l.256-.2.074-.089a1.251,1.251,0,0,0,.25-.437v0l.034-.082a.956.956,0,0,0,.022-.494.618.618,0,0,0-.084-.311.605.605,0,0,0-.16-.273.624.624,0,0,0-.221-.222.934.934,0,0,0-.42-.221l-.328-.044Zm-17.522,3.19a1.132,1.132,0,0,0-1.09,1.413l.024.1a1.093,1.093,0,0,0,.435.631,1.241,1.241,0,0,0,.711.223,1.154,1.154,0,0,0,.823-.335,1.139,1.139,0,0,0,.3-.549,1.241,1.241,0,0,0-.014-.608,1.128,1.128,0,0,0-.809-.813l-.1-.024A1.161,1.161,0,0,0,12.666,47.963Zm107.752,5.105a4.8,4.8,0,0,0-2.776,1.111,5.008,5.008,0,0,0-1.057,1.109,2.556,2.556,0,0,0-.472,1.23.078.078,0,0,0,.02.06.1.1,0,0,0,.072.029.1.1,0,0,0,.066-.024,9.832,9.832,0,0,0,.727-.749,5.549,5.549,0,0,1,1.365-1.209,5.165,5.165,0,0,1,1.643-.525,7.725,7.725,0,0,0,1.109-.276.339.339,0,0,0,0-.647A2.115,2.115,0,0,0,120.417,53.068Zm-86.9.674a.742.742,0,0,0-.2.027.734.734,0,0,0-.373.1.753.753,0,0,0-.328.19,1.134,1.134,0,0,0-.381.416c-.051.119-.1.238-.149.353l-.053.395.053.395,0,.012a1.476,1.476,0,0,0,.375.643l.3.229a1.39,1.39,0,0,0,.361.151,1.166,1.166,0,0,0,.345.053,1.123,1.123,0,0,0,.246-.028.729.729,0,0,0,.373-.1.75.75,0,0,0,.327-.19.761.761,0,0,0,.267-.267,1.118,1.118,0,0,0,.265-.5l.052-.395-.052-.395c-.048-.111-.1-.23-.149-.353l-.136-.184a1.009,1.009,0,0,0-.292-.271l-.1-.076a1.1,1.1,0,0,0-.551-.175A.732.732,0,0,0,33.513,53.742Zm71.012.2h-.048a1.193,1.193,0,0,0-.594.161l-.237.185a.875.875,0,0,0-.244.379.885.885,0,0,0-.1.454v.029a.436.436,0,0,0,.021.172.661.661,0,0,0,.024.174,1.241,1.241,0,0,0,.856.856,1.213,1.213,0,0,0,.322.043,1.239,1.239,0,0,0,.872-.358,1.222,1.222,0,0,0,0-1.733,1.213,1.213,0,0,0-.541-.316,1.24,1.24,0,0,0-.327-.047ZM13.16,58.466a1.2,1.2,0,0,0-.158.011.866.866,0,0,0-.429.162.822.822,0,0,0-.3.3l-.084.2a1.36,1.36,0,0,0-.03.238.207.207,0,0,1,0,.03,1.586,1.586,0,0,0,.033.263,1.006,1.006,0,0,0,.18.344.723.723,0,0,0,.271.248l.01.008.011.008.044.031h0l.062.043a.978.978,0,0,0,.5.134H13.3a.736.736,0,0,0,.35-.086.708.708,0,0,0,.317-.2.725.725,0,0,0,.2-.317.744.744,0,0,0,.085-.379.977.977,0,0,0-.134-.5c-.055-.072-.105-.137-.155-.2a.973.973,0,0,0-.434-.254l-.1-.033A.794.794,0,0,0,13.16,58.466Zm78.741.4a1.349,1.349,0,0,0-.679,2.513,1.346,1.346,0,0,0,1.36,0l.021-.009a1.345,1.345,0,0,0,.48-.48,1.338,1.338,0,0,0,0-1.35,1.348,1.348,0,0,0-.48-.48.088.088,0,0,0-.017-.009l0,0A1.357,1.357,0,0,0,91.9,58.866ZM29.069,60.657h-.038a1.288,1.288,0,0,0-.881.355l-.054.062-.027.032-.19.219a1.167,1.167,0,0,0-.3.516c-.014.1-.027.2-.04.291l0,.021a1.172,1.172,0,0,0,1.13,1.17h.08a.859.859,0,0,0,.413-.1.89.89,0,0,0,.378-.242l.222-.186.064-.052.031-.027a1.217,1.217,0,0,0,.309-.532c.018-.118.033-.233.046-.35A1.166,1.166,0,0,0,29.865,61a.9.9,0,0,0-.379-.244A.889.889,0,0,0,29.069,60.657ZM20.98,64.076a1.131,1.131,0,0,0-.889.384,1.352,1.352,0,0,0,0,1.689,1.222,1.222,0,0,0,1.779,0,1.351,1.351,0,0,0,0-1.689A1.131,1.131,0,0,0,20.98,64.076Zm79.714,2.986h-.045a1.459,1.459,0,0,0-.736.2l-.085.066,0,0h0l-.206.158a1.467,1.467,0,0,0-.356.587l-.017.056-.053.389a1.511,1.511,0,0,0,1.407,1.457h.05a1.455,1.455,0,0,0,.734-.2l.3-.227a1.49,1.49,0,0,0,.375-.643c.015-.118.033-.254.052-.387a1.637,1.637,0,0,0-.426-1.031,1.671,1.671,0,0,0-.984-.427Zm-7.26,5.464a1.07,1.07,0,0,0-.691.3l-.041.038h0l-.07.064a.89.89,0,0,0-.257.621.988.988,0,0,0,.257.622l.078.072.035.032a1.1,1.1,0,0,0,.723.3h.03a1.154,1.154,0,0,0,.695-.3.988.988,0,0,0,0-1.45,1.033,1.033,0,0,0-.452-.264l-.273-.037ZM20.387,75.469a1.586,1.586,0,0,0-.8.216l-.32.247a1.2,1.2,0,0,0-.328.509,1.184,1.184,0,0,0-.136.555v.054a.339.339,0,0,0,0,.04c.015.115.031.231.046.344v0l.011.083a1.219,1.219,0,0,0,.29.55.518.518,0,0,0,.148.181,1.621,1.621,0,0,0,.712.416l.329.044h.006l.094.013a1.618,1.618,0,0,0,.764-.192l.051-.028.326-.253a1.215,1.215,0,0,0,.335-.519,1.467,1.467,0,0,0,0-1.245,1.194,1.194,0,0,0-.335-.519.948.948,0,0,0-.344-.276l-.3-.127-.085-.036a1.8,1.8,0,0,0-.448-.058Zm70.8,5.02h-.037a1.118,1.118,0,0,0-.573.155l-.23.177a1.137,1.137,0,0,0-.277.454l-.014.048-.041.3a.843.843,0,0,0,.1.437,1.018,1.018,0,0,0,.6.6.845.845,0,0,0,.391.1h.046a1.131,1.131,0,0,0,.573-.154l.23-.178a1.125,1.125,0,0,0,.292-.5l.041-.3a1.276,1.276,0,0,0-.334-.8,1.289,1.289,0,0,0-.766-.333Zm-61.728.565H29.4a1.663,1.663,0,0,0-.847.229l-.117.09h0l-.222.171a1.711,1.711,0,0,0-.431.74l-.059.446a1.619,1.619,0,0,0,1.031,1.532,1.269,1.269,0,0,0,.592.145H29.4a1.681,1.681,0,0,0,.847-.23l.038-.029c.1-.076.2-.154.3-.233a1.683,1.683,0,0,0,.433-.74l.059-.445a1.87,1.87,0,0,0-.492-1.187,1.908,1.908,0,0,0-1.13-.492ZM85.884,85.5a1.2,1.2,0,0,0-.362.057c-.121.053-.247.1-.368.155h-.005l-.04.023a1.536,1.536,0,0,0,0,2.652l.027.014.012.007a1.165,1.165,0,0,0,.58.186.8.8,0,0,0,.416,0,1.164,1.164,0,0,0,.58-.186l.315-.244a.116.116,0,0,0,.014-.015,1.546,1.546,0,0,0,.4-.679l.055-.41a1.751,1.751,0,0,0-.414-1.053l-.05-.049a1.17,1.17,0,0,0-.5-.323.767.767,0,0,0-.394-.107A1.179,1.179,0,0,0,85.884,85.5Z" transform="translate(140.565 112.528) rotate(180)"/>
          </g>
          <g id="HEAD" transform="translate(38.17 0)">
            <path id="_Skin-4" data-name="âœ‹ Skin" d="M8.92,1.03c8.125-2.391,36.065.06,36.756.578,1.131.942,6.63,3.93,7.486,4.613,7.738,8.222.361,20.431.929,30.35-.036,3.518,1.459,6.731,2.147,10.115a7.717,7.717,0,0,1-.7,5.2c-1.621,2.846-5.045,3.422-7.83,4.57a17.892,17.892,0,0,0-3.867,2.374c-7.99,7.086-12.438,11.938-24.1,10.34a.9.9,0,0,1-1.164.857c-1.431-.584-2.853-1.2-4.3-1.758a1.039,1.039,0,0,1-1.8.3l0,0a19.769,19.769,0,0,1-5.635-8.327A34.941,34.941,0,0,1,4.7,54.524a1.006,1.006,0,0,1,0-.594A77.81,77.81,0,0,1,1.875,26.683a48.7,48.7,0,0,0,.4-5.7A17.686,17.686,0,0,0,.9,16.06C-1.989,9.28,2.433,3.165,8.92,1.03Z" transform="translate(9.326 11.465)" fill="#d08b5b"/>
            <path id="_Ink-5" data-name="ðŸ– Ink" d="M47.631,0a24.322,24.322,0,0,0-7.057,1.1,28.967,28.967,0,0,0-3.358,1.255A29.49,29.49,0,0,0,34.1,3.973a1.545,1.545,0,0,0-.694.814,1.6,1.6,0,0,0-.022.964,1.888,1.888,0,0,0,.565.908,1.466,1.466,0,0,0,.975.385,1.57,1.57,0,0,0,.823-.247A25.421,25.421,0,0,1,44.132,3.53,21.066,21.066,0,0,1,48.172,3.1a11.636,11.636,0,0,1,4.526.826c3.085,1.3,5.481,4.24,7.326,8.992a59.69,59.69,0,0,1,2.015,6.521c.609,2.331,1.381,5.41,1.948,8.564a44.717,44.717,0,0,1,.257,16.35,33.391,33.391,0,0,1-1.386,5.114,2.889,2.889,0,0,0-.264.392,21.051,21.051,0,0,0-1.272,2.888c-.083.217-.169.442-.255.661-.385.67-.82,1.346-1.33,2.064a18.46,18.46,0,0,0-2,1.767,14.384,14.384,0,0,1,4.521,4.485.551.551,0,0,1-.154.765,12.2,12.2,0,0,0-1.541-1.59,19.954,19.954,0,0,0-1.788-1.376,16.2,16.2,0,0,0-2.036-1.478c-.442-.088-.915-.158-1.532-.229a15.127,15.127,0,0,0-1.706-.094,19.336,19.336,0,0,0-2.584.182c-.729.1-2.01.372-3.631.72C43.189,59.5,37,60.833,32.516,60.833a13.167,13.167,0,0,1-3.166-.32,2.515,2.515,0,0,1-1.247-.779,8.157,8.157,0,0,1-.876-1.241h0l-.162-.261a7.282,7.282,0,0,0-.893-1.152,7.654,7.654,0,0,0-1.1-.952l-.089-.063a21.925,21.925,0,0,1-6.035-7.589c-1.646-3.817-3.214-14.9-2.672-15.859a.115.115,0,0,1,.079-.067,8.091,8.091,0,0,0,3.877-1.854h0c.256-.186.52-.378.8-.573a.132.132,0,0,0,.047-.15.1.1,0,0,0-.1-.079.123.123,0,0,0-.042.008,19.26,19.26,0,0,1-3.325.8,8.041,8.041,0,0,1-1.337.121,4.821,4.821,0,0,1-1.7-.283,4.037,4.037,0,0,1-2.519-3.222,8.7,8.7,0,0,1-.175-1.7v-.166a7.1,7.1,0,0,1,1.64-5.126,3.619,3.619,0,0,1,.96-.7,3.572,3.572,0,0,1,1.134-.353,2.33,2.33,0,0,1,.309-.021,3.345,3.345,0,0,1,1.2.275,6.916,6.916,0,0,0,.681.222,1.579,1.579,0,0,0,.39.051,1.171,1.171,0,0,0,.89-.374,1.055,1.055,0,0,0,.257-.83c.211-.185.413-.38.565-.529h0a1.463,1.463,0,0,0,.342-.216,2.351,2.351,0,0,0,.432-.478,1.161,1.161,0,0,0,.705-.455c.411-.531.8-1.081,1.158-1.636.573-.61,1.247-1.331,1.9-2.056.606-.668,1.208-1.359,1.791-2.028l.012-.013.428-.491.371-.423c.39-.444.792-.9,1.2-1.368l.119-.134.025-.028a2.169,2.169,0,0,0,.726-1.4.621.621,0,0,0-.174-.473.788.788,0,0,0-.566-.245.689.689,0,0,0-.172.021,2.225,2.225,0,0,0-1.207,1h0c-.049.065-.1.133-.15.2l-.6.766-.561.722c-.2.26-.408.524-.607.779l-.021.027-.211.27a1.342,1.342,0,0,0-.5-.847,1.588,1.588,0,0,0-.914-.374l-.148-.006c-.133,0-.266-.007-.395-.007a8.571,8.571,0,0,0-2.161.25,4.345,4.345,0,0,0-1.884.972,4.6,4.6,0,0,0-1.928-1.167,3.438,3.438,0,0,0-1.024-.157,3.615,3.615,0,0,0-1.957.587A3.679,3.679,0,0,0,12.6,11.147a6.6,6.6,0,0,0-4.473-.279,1.232,1.232,0,0,0-.564,2l.027.029.007.008a1.031,1.031,0,0,0-.2.579,1.136,1.136,0,0,0,.073.381.925.925,0,0,1,.066.407c-.051.318-.267.479-.641.479a4.267,4.267,0,0,1-1.447-.408l-.074-.031a.745.745,0,0,0-.261-.06.772.772,0,0,0-.217-.031,1.073,1.073,0,0,0-.871.54,1.217,1.217,0,0,0-.181.517,1.026,1.026,0,0,0,.1.558c.361.747.723,1.508,1.074,2.245v0c.5,1.059,1.027,2.155,1.552,3.227-.121-.041-.236-.075-.342-.1a3.386,3.386,0,0,0-.842-.106,3.075,3.075,0,0,0-1.117.2,2.086,2.086,0,0,0-.862.6,1.7,1.7,0,0,0-.346.7,2.184,2.184,0,0,0,0,.912,1.031,1.031,0,0,0,.33.57,1.622,1.622,0,0,0,.572.335,3.652,3.652,0,0,0,1.078.173,2.639,2.639,0,0,1,.922.159A8.527,8.527,0,0,1,7.968,26.07a10.486,10.486,0,0,1,1.7,1.763,6.893,6.893,0,0,0,1.086,2.594l.008.01c.03.042.062.084.094.125a3.793,3.793,0,0,0-2.46,1.681,10.661,10.661,0,0,0-1.1,2.81,16.294,16.294,0,0,1-1.038,2.871l-.131.254c-1.014,1.978-1.977,4.32-1.438,6.7A5.638,5.638,0,0,0,5.1,46.051c-.268-.033-.54-.064-.8-.094l-.042,0a.714.714,0,0,0-.08,0,1.052,1.052,0,0,0-.833.508.942.942,0,0,0-.132.872c.132.313.282.627.445.934a10.61,10.61,0,0,0,1.641,2.27l-.609.014h0c-.866.019-1.761.038-2.632.14a2.888,2.888,0,0,0-1.415.527,1.637,1.637,0,0,0-.468.552A1.576,1.576,0,0,0,0,52.53,2.343,2.343,0,0,0,.63,54a5.282,5.282,0,0,0,1.286,1.039,10.809,10.809,0,0,0,1.506,1.627,11.072,11.072,0,0,0,1.8,1.286,6.431,6.431,0,0,1-.77.125l-.131.012a5.881,5.881,0,0,0-2.05.565.8.8,0,0,0-.449.591,1.1,1.1,0,0,0,.253.934,2.677,2.677,0,0,0,2.049.874,5.694,5.694,0,0,0,2.541-.736,3.91,3.91,0,0,1-.335.373l-.074.071a.666.666,0,0,0-.188.757.848.848,0,0,0,.756.531.736.736,0,0,0,.506-.21,5.09,5.09,0,0,0,.609-.683l.017.036a15.7,15.7,0,0,0,3.961,5.019l.384.32c.286.24.548.462.8.678a15.673,15.673,0,0,0,2.648,1.983,5.509,5.509,0,0,0,1.358.508,7.463,7.463,0,0,0,1.685.172c.394,0,.814-.021,1.286-.065a7.94,7.94,0,0,0-.113,2.177l.005.089a10.871,10.871,0,0,0,.89,3.8,5.373,5.373,0,0,0,2.589,2.772.919.919,0,0,0,.386.086.829.829,0,0,0,.648-.3.793.793,0,0,0,.137-.686,12.084,12.084,0,0,0-.438-1.49,17.538,17.538,0,0,0,5.267,3.781,9.976,9.976,0,0,0,4.075.956,7.49,7.49,0,0,0,1.258-.105,6.821,6.821,0,0,0,1.991-.7,20.53,20.53,0,0,0,1.805-1.1c.269-.177.547-.36.824-.534a11.557,11.557,0,0,1,4.876-1.685,17.625,17.625,0,0,1,2.014-.112,28.639,28.639,0,0,1,5.248.558,46.822,46.822,0,0,1,4.811,2.474,26.76,26.76,0,0,1,2.778,1.845l.087.067c.131.1.262.211.389.317a3.592,3.592,0,0,0,2.187,1.1,2.139,2.139,0,0,0,.565-.079,2.688,2.688,0,0,0,1.863-2.282c.324.34.648.7.963,1.074a1.549,1.549,0,0,0,1.21.528,2.006,2.006,0,0,0,1.138-.356,1.685,1.685,0,0,0,.422-.417,1.454,1.454,0,0,0,.236-.552,20.14,20.14,0,0,0,.04-7.792c-.077-.4-.168-.792-.271-1.167A21.09,21.09,0,0,1,69.535,74.3a.887.887,0,0,0,.77.461.991.991,0,0,0,.653-.258,1.036,1.036,0,0,0,.337-.681c.021-.233.034-.473.037-.711a.814.814,0,0,0,.518-.963,69.987,69.987,0,0,0-2-7.482,7.939,7.939,0,0,0,1.4.592,5.005,5.005,0,0,0,1.452.232,3.748,3.748,0,0,0,1.26-.212,3.388,3.388,0,0,0,1.329-.85,3.633,3.633,0,0,0,.775-1.269,5.694,5.694,0,0,0,.159-3.071,9,9,0,0,0-1.576-3.5,10.322,10.322,0,0,0-1.277-1.438,11.076,11.076,0,0,0-1.521-1.191c-.226-.341-.493-.748-.752-1.175a9.009,9.009,0,0,0-.618-3.283,6.982,6.982,0,0,0-2.279-2.946,2.108,2.108,0,0,0-.751-.857,1.979,1.979,0,0,0-1.073-.345,1.51,1.51,0,0,0-.281.026l-.043.009,0,0c.2-.723.386-1.488.547-2.274a32.6,32.6,0,0,0,.588-4.463,41.076,41.076,0,0,0,.028-4.505c-.067-1.438-.2-2.909-.407-4.5-.181-1.4-.416-2.849-.716-4.444l-.035-.187c-.478-2.518-1.019-5.215-1.726-7.879a46.226,46.226,0,0,0-2.665-7.6,21.389,21.389,0,0,0-1.788-3.152,17.119,17.119,0,0,0-2.324-2.731A12.572,12.572,0,0,0,51.267.34,19.1,19.1,0,0,0,47.631,0ZM18.472,66.352a6.229,6.229,0,0,1-3.756-1.52.51.51,0,0,1-.209-.341,20.4,20.4,0,0,0,3.266.909,18.005,18.005,0,0,0,2.663.355.534.534,0,0,1-.257.225A4.129,4.129,0,0,1,18.472,66.352Zm.38-42.974a1.6,1.6,0,0,0-1.266.723,4.473,4.473,0,0,0-.421.733,3.26,3.26,0,0,1-.62.953l-.119.116a2.506,2.506,0,0,1-1.561.876.93.93,0,0,1-.147-.011h-.014a.1.1,0,0,0-.093.073.073.073,0,0,0,.041.085c.17.093.32.2.466.294a2.828,2.828,0,0,0,.928.472,3.213,3.213,0,0,0,.8.1,3.3,3.3,0,0,0,.8-.1,3.854,3.854,0,0,0,1.791-1.027,2.838,2.838,0,0,0,.853-1.83,1.323,1.323,0,0,0-.3-.88,1.52,1.52,0,0,0-.769-.526A1.41,1.41,0,0,0,18.852,23.378Zm4.474,8.145a.476.476,0,0,0-.206.045,1.379,1.379,0,0,0-.563.481,1.5,1.5,0,0,0-.239.663,1.824,1.824,0,0,0,.635,1.6.3.3,0,0,0,.189.072.269.269,0,0,0,.223-.118A.274.274,0,0,0,23.387,34l-.008-.02a1.884,1.884,0,0,1,.386-1.77A.392.392,0,0,0,23.8,31.8.551.551,0,0,0,23.326,31.523Zm2.265,6.217a.491.491,0,0,0-.382.177.521.521,0,0,0-.1.438c.2,1.009.476,2.013.747,2.983a30.218,30.218,0,0,1,.887,3.807,23.15,23.15,0,0,1,.173,6.834.126.126,0,0,0,.028.1.118.118,0,0,0,.088.041.109.109,0,0,0,.1-.081,17.312,17.312,0,0,0,.91-6.936l-.012-.221a18.857,18.857,0,0,0-.516-3.617,9.409,9.409,0,0,0-1.5-3.3A.532.532,0,0,0,25.591,37.74Zm-5.964,5.345a.286.286,0,0,0-.212.106.267.267,0,0,0-.06.222,1.139,1.139,0,0,0,.387.619,1.071,1.071,0,0,0,.672.284.629.629,0,0,0,.512-.259.286.286,0,0,0,.05-.258.488.488,0,0,0-.277-.3.409.409,0,0,0-.153-.027,1.078,1.078,0,0,0-.145.013,1.091,1.091,0,0,1-.147.013.444.444,0,0,1-.088-.008.484.484,0,0,1-.327-.248l-.015-.028A.22.22,0,0,0,19.627,43.085Zm-.575,5.173a.1.1,0,0,0-.085.054.116.116,0,0,0-.007.113,1.621,1.621,0,0,0,.529.58,1.313,1.313,0,0,0,.723.23,1.122,1.122,0,0,0,.575-.159.274.274,0,0,0,.117-.312.247.247,0,0,0-.241-.194H20.65l-.162.007c-.1,0-.18.005-.252.005a1.8,1.8,0,0,1-1.129-.306A.088.088,0,0,0,19.052,48.258Z" transform="translate(76.355 83.106) rotate(180)"/>
          </g>
          <g id="FACE" transform="translate(53.146 40.977)">
            <path id="_Ink-6" data-name="ðŸ– Ink" d="M16.45,0a5.8,5.8,0,0,0-2.2.439,6.213,6.213,0,0,0-1.436.825,6.117,6.117,0,0,0-1.169,1.179,1.208,1.208,0,0,0-.244.935,1.348,1.348,0,0,0,.525.845,1.292,1.292,0,0,0,.769.268,1.116,1.116,0,0,0,.172-.013,1.188,1.188,0,0,0,.8-.526l.047-.065a4.1,4.1,0,0,1,1.5-1.262A3.413,3.413,0,0,1,16.7,2.277a3.3,3.3,0,0,1,.37.021,4.957,4.957,0,0,1,3.033,1.739c.1.1.205.212.342.358a.541.541,0,0,0,.284.219.581.581,0,0,0,.185.029.628.628,0,0,0,.514-.269.574.574,0,0,0,.1-.378,3.888,3.888,0,0,0-1.29-2.473A5.652,5.652,0,0,0,18.908.6,5.543,5.543,0,0,0,17.43.089,5.44,5.44,0,0,0,16.45,0ZM18,8.771h0a5.314,5.314,0,0,0-1.9.382,9.572,9.572,0,0,0-2.229,1.265.857.857,0,0,0-.311.495,1.026,1.026,0,0,0,.044.556,1.264,1.264,0,0,0,.375.543.913.913,0,0,0,.585.228.83.83,0,0,0,.452-.139l.151-.116h0a5.759,5.759,0,0,1,3.068-1.5,1.831,1.831,0,0,1,1.365.605,2.02,2.02,0,0,1,.383,1.626,4.429,4.429,0,0,1-2.048,2.437.383.383,0,0,0-.1.44.569.569,0,0,0,.554.394.775.775,0,0,0,.131-.012,4.134,4.134,0,0,0,1.454-.525,3.3,3.3,0,0,0,.978-.9,3.585,3.585,0,0,0,.624-2.394,3.824,3.824,0,0,0-1.041-2.337A3.444,3.444,0,0,0,18,8.771ZM5.665,17.337a1.243,1.243,0,0,0-.807.316,1.257,1.257,0,0,0-.423.813,9.158,9.158,0,0,0,.049,2.384c.029.232.058.471.079.729A1.427,1.427,0,0,0,5.1,22.6a1.665,1.665,0,0,0,1.024.36,1.262,1.262,0,0,0,.775-.244,1.149,1.149,0,0,0,.428-.762,6.4,6.4,0,0,0-.668-3.942A1.1,1.1,0,0,0,5.665,17.337Zm18.1.541a1.087,1.087,0,0,0-.852.365,3.673,3.673,0,0,0-.786,1.948,2.257,2.257,0,0,0,.615,1.937,1.277,1.277,0,0,0,.1.15,1.393,1.393,0,0,0,1.072.617,1.161,1.161,0,0,0,.325-.048,1.568,1.568,0,0,0,1.047-.914,3.234,3.234,0,0,0,.13-1.768,5.92,5.92,0,0,0-.536-1.668,1.082,1.082,0,0,0-.463-.458A1.4,1.4,0,0,0,23.769,17.878ZM.2,23.558a.2.2,0,0,0-.165.1.221.221,0,0,0-.013.217,7.514,7.514,0,0,0,1.684,2.132,10.412,10.412,0,0,0,2.254,1.54,9.69,9.69,0,0,0,2.677.934l.286.05a6.962,6.962,0,0,0,1.168.127,1.8,1.8,0,0,0,1.442-.538,1.225,1.225,0,0,0,.29-.87.8.8,0,0,0-.29-.569,2.22,2.22,0,0,0-1.522-.447c-.12,0-.244,0-.364.006h0c-.115,0-.246.006-.376.006s-.226,0-.326-.009a10.288,10.288,0,0,1-2.266-.386A15.393,15.393,0,0,1,.306,23.592.188.188,0,0,0,.2,23.558Zm27.566,1.154h0l-.121.03a6.817,6.817,0,0,0-1.322.516l-.429.212a11.919,11.919,0,0,1-1.533.653,18.083,18.083,0,0,1-3.492.771,1.426,1.426,0,0,0-.7.266,1.05,1.05,0,0,0-.392.6,1.068,1.068,0,0,0,.121.895,1.14,1.14,0,0,0,.553.477,1.243,1.243,0,0,0,.471.09,1.388,1.388,0,0,0,.272-.027l.219-.045a15.623,15.623,0,0,0,3.771-1.225,7.625,7.625,0,0,0,1.659-1.091,4.843,4.843,0,0,0,1.172-1.516c.041-.317,0-.395-.039-.448l-.012-.015-.011-.015a.3.3,0,0,0-.187-.125Z" transform="translate(28.034 29.218) rotate(180)"/>
          </g>
        </g>
      </g>
    </g>
  </g>
</svg>
